<?xml version="1.0" encoding="UTF-8"?>
<svg version="1.1" xmlns="http://www.w3.org/2000/svg" width="475" height="521">
<path d="M0 0 C0.64713455 0.265849 1.2942691 0.531698 1.96101379 0.80560303 C4.04610272 1.66392605 6.12648865 2.53306652 8.20703125 3.40234375 C9.64092019 3.99459602 11.07516733 4.58598175 12.50976562 5.17651367 C15.35585768 6.34851569 18.20058845 7.52372928 21.04443359 8.70117188 C26.35230213 10.89450335 31.68328662 13.02913758 37.01953125 15.15234375 C40.97953125 16.73015625 40.97953125 16.73015625 45.01953125 18.33984375 C45.34953125 32.19984375 45.67953125 46.05984375 46.01953125 60.33984375 C52.28953125 62.31984375 58.55953125 64.29984375 65.01953125 66.33984375 C65.00792969 64.78652344 64.99632812 63.23320313 64.984375 61.6328125 C64.97499641 59.59765745 64.96589628 57.5625011 64.95703125 55.52734375 C64.94865234 54.50318359 64.94027344 53.47902344 64.93164062 52.42382812 C64.92680664 50.94946289 64.92680664 50.94946289 64.921875 49.4453125 C64.91401978 48.08635864 64.91401978 48.08635864 64.90600586 46.69995117 C65.01953125 44.33984375 65.01953125 44.33984375 66.01953125 41.33984375 C68.64765468 40.15807013 71.18165094 39.15373624 73.89453125 38.21484375 C74.62800781 37.95058594 75.36148437 37.68632813 76.1171875 37.4140625 C86.05931733 33.84648586 91.93503664 33.88080011 101.63671875 37.8046875 C102.98336105 38.33383507 102.98336105 38.33383507 104.35720825 38.87367249 C107.20749989 39.99717715 110.05081762 41.13730723 112.89453125 42.27734375 C114.82902042 43.04074486 116.76391251 43.80312577 118.69921875 44.56445312 C120.53290851 45.28946375 122.36625454 46.0153445 124.19921875 46.7421875 C125.06892303 47.08700668 125.93862732 47.43182587 126.83468628 47.78709412 C127.63286774 48.10735062 128.43104919 48.42760712 129.25341797 48.75756836 C129.95844452 49.03958603 130.66347107 49.3216037 131.38986206 49.61216736 C133.01953125 50.33984375 133.01953125 50.33984375 134.01953125 51.33984375 C134.17982813 54.29513879 134.27910453 57.22966832 134.3359375 60.1875 C134.3567186 61.07392685 134.37749969 61.9603537 134.39891052 62.87364197 C134.46450525 65.71646075 134.52333677 68.55937492 134.58203125 71.40234375 C134.62520705 73.32487981 134.66882103 75.24740609 134.71289062 77.16992188 C134.82102461 81.89313268 134.92002372 86.61641167 135.01953125 91.33984375 C143.43453125 94.30984375 143.43453125 94.30984375 152.01953125 97.33984375 C151.68953125 95.68984375 151.35953125 94.03984375 151.01953125 92.33984375 C150.90277438 89.84178969 150.844535 87.34059362 150.83203125 84.83984375 C150.81785156 83.55078125 150.80367188 82.26171875 150.7890625 80.93359375 C151.16525474 75.06754521 151.16525474 75.06754521 153.01953125 72.33984375 C155.87836351 70.59693001 158.87884231 69.4762457 162.01953125 68.33984375 C162.83292969 68.00339844 163.64632813 67.66695313 164.484375 67.3203125 C179.08903486 61.89836137 200.95209755 75.91287027 212.01953125 80.33984375 C212.01953125 107.39984375 212.01953125 134.45984375 212.01953125 162.33984375 C208.57664596 163.48747218 207.663777 163.16460939 204.28076172 162.13256836 C203.32581818 161.84676407 202.37087463 161.56095978 201.38699341 161.26649475 C200.35565277 160.94909836 199.32431213 160.63170197 198.26171875 160.3046875 C196.06507413 159.64598648 193.86812667 158.98829463 191.67089844 158.33154297 C190.55549683 157.99596375 189.44009521 157.66038452 188.29089355 157.31463623 C183.46722327 155.87729084 178.62467291 154.51128354 173.77734375 153.15625 C172.37868324 152.76419876 172.37868324 152.76419876 170.95176697 152.36422729 C168.0164112 151.54220001 165.08050257 150.72216954 162.14453125 149.90234375 C161.10712799 149.61214355 160.06972473 149.32194336 159.00088501 149.02294922 C145.87981179 145.35254599 132.7517162 141.70788026 119.6171875 138.0859375 C118.97328316 137.90836977 118.32937881 137.73080204 117.66596222 137.54785347 C109.59080398 135.32131697 101.51442452 133.0992465 93.43710327 130.88056946 C90.07788002 129.95505091 86.72102101 129.02130898 83.36425781 128.08691406 C79.19896125 126.92998432 75.02551883 125.81816151 70.83886719 124.74121094 C69.87394852 124.48537231 68.90902985 124.22953369 67.91487122 123.96594238 C66.13143421 123.49313976 64.34390428 123.03537992 62.55180359 122.59655762 C55.51225034 120.6958069 52.78222917 117.67117692 48.9609375 111.43359375 C39.95323477 97.07926666 21.41024925 88.54429995 5.51953125 84.58984375 C-15.80321682 80.40845978 -37.77302986 84.6307747 -56.07080078 96.46411133 C-63.21360813 101.30898993 -70.60670006 107.11305285 -75.33781433 114.44270325 C-80.05218806 121.46037858 -84.57885914 123.272172 -92.6328125 125.1640625 C-94.39118187 125.62175018 -94.39118187 125.62175018 -96.18507385 126.08868408 C-98.74423644 126.75064097 -101.30310475 127.39982456 -103.87011719 128.02926636 C-107.98213976 129.03818467 -112.08153914 130.09279934 -116.1796875 131.15649414 C-117.61505868 131.52857729 -119.05045331 131.90057003 -120.48587036 132.2724762 C-121.21148289 132.46048861 -121.93709541 132.64850101 -122.6846962 132.84221077 C-124.94378129 133.42564395 -127.20400306 134.00447139 -129.46456909 134.58213806 C-147.07028594 139.08808219 -164.5797492 143.94190554 -182.0942688 148.78799438 C-187.43130455 150.26450515 -192.77002287 151.73486021 -198.10913086 153.20385742 C-207.47592313 155.78178006 -207.47592313 155.78178006 -216.84179688 158.36303711 C-218.0574231 158.69814804 -219.27304932 159.03325897 -220.5255127 159.37852478 C-222.9373746 160.04960961 -225.34286283 160.74384246 -227.74304199 161.45558167 C-230.68423609 162.25893155 -232.95896284 162.52296532 -235.98046875 162.33984375 C-237.18770978 158.55513576 -237.14239181 154.79558224 -237.1574707 150.86499023 C-237.1640419 150.11820007 -237.1706131 149.37140991 -237.17738342 148.60198975 C-237.19704725 146.13830458 -237.20875933 143.67467996 -237.21875 141.2109375 C-237.22282553 140.36884295 -237.22690105 139.52674839 -237.23110008 138.65913582 C-237.25192451 134.20773694 -237.26624569 129.75636863 -237.27563477 125.30493164 C-237.28673259 120.70228782 -237.32118106 116.10012302 -237.36080647 111.49764919 C-237.38689828 107.96066872 -237.3953196 104.42380417 -237.39891624 100.88673592 C-237.4037962 99.18941042 -237.41545008 97.49209058 -237.43395424 95.79485893 C-237.45820384 93.42461372 -237.45740819 91.055633 -237.45043945 88.68530273 C-237.46324951 87.98236588 -237.47605957 87.27942902 -237.48925781 86.55519104 C-237.45528298 83.3932893 -237.4079633 81.77505172 -235.1436615 79.46989441 C-230.35238123 76.96693233 -225.31724908 75.0383156 -220.30078125 73.04150391 C-218.24653566 72.22125914 -216.19945739 71.38473359 -214.15234375 70.546875 C-212.82983165 70.01591827 -211.50692669 69.48593884 -210.18359375 68.95703125 C-208.99411133 68.47862793 -207.80462891 68.00022461 -206.57910156 67.50732422 C-201.20327366 65.76328019 -195.91360303 64.36319712 -190.515625 66.73828125 C-189.77892578 67.0528125 -189.04222656 67.36734375 -188.28320312 67.69140625 C-187.17428711 68.19800781 -187.17428711 68.19800781 -186.04296875 68.71484375 C-184.89344727 69.20984375 -184.89344727 69.20984375 -183.72070312 69.71484375 C-178.19935366 72.12095884 -178.19935366 72.12095884 -176.98046875 73.33984375 C-176.89320652 75.12055621 -176.87347834 76.90467515 -176.8828125 78.6875 C-176.88603516 79.76708984 -176.88925781 80.84667969 -176.89257812 81.95898438 C-176.90514648 83.66344727 -176.90514648 83.66344727 -176.91796875 85.40234375 C-176.92248047 86.54251953 -176.92699219 87.68269531 -176.93164062 88.85742188 C-176.94347128 91.68494726 -176.95995465 94.51237015 -176.98046875 97.33984375 C-176.00464844 96.97890625 -175.02882812 96.61796875 -174.0234375 96.24609375 C-172.73837306 95.77709213 -171.45321171 95.30835596 -170.16796875 94.83984375 C-169.52537109 94.60136719 -168.88277344 94.36289063 -168.22070312 94.1171875 C-165.33113136 93.06915629 -163.07970814 92.33984375 -159.98046875 92.33984375 C-159.98570557 91.13859863 -159.99094238 89.93735352 -159.99633789 88.69970703 C-160.01440528 84.25309999 -160.02590715 79.80649622 -160.03540039 75.35986328 C-160.04043662 73.43342544 -160.04726587 71.50699144 -160.0559082 69.58056641 C-160.06800483 66.81542007 -160.07370408 64.05032417 -160.078125 61.28515625 C-160.08328629 60.42052765 -160.08844757 59.55589905 -160.09376526 58.66506958 C-160.09434046 52.56758716 -160.09434046 52.56758716 -158.98046875 50.33984375 C-157.35079956 49.53660583 -157.35079956 49.53660583 -155.21435547 48.75170898 C-154.01708328 48.3063102 -154.01708328 48.3063102 -152.79562378 47.85191345 C-151.92591949 47.53726639 -151.05621521 47.22261932 -150.16015625 46.8984375 C-148.82212448 46.40682884 -148.82212448 46.40682884 -147.45706177 45.9052887 C-145.56348642 45.21172429 -143.66857423 44.52180072 -141.77246094 43.83520508 C-138.88472903 42.78795513 -136.00275126 41.72594267 -133.12109375 40.66210938 C-131.28027686 39.98998383 -129.43914065 39.31873204 -127.59765625 38.6484375 C-126.74009735 38.3317662 -125.88253845 38.01509491 -124.99899292 37.68882751 C-118.52901125 35.3625926 -112.64796989 33.26763744 -105.921875 35.7734375 C-105.12724854 36.06017334 -104.33262207 36.34690918 -103.51391602 36.64233398 C-102.53350342 37.01688721 -101.55309082 37.39144043 -100.54296875 37.77734375 C-97.38734375 38.95296875 -94.23171875 40.12859375 -90.98046875 41.33984375 C-90.98046875 49.58984375 -90.98046875 57.83984375 -90.98046875 66.33984375 C-84.38046875 64.02984375 -77.78046875 61.71984375 -70.98046875 59.33984375 C-70.65046875 46.13984375 -70.32046875 32.93984375 -69.98046875 19.33984375 C-58.71933589 13.70927732 -58.71933589 13.70927732 -54.73364258 12.10400391 C-53.83603714 11.74078033 -52.9384317 11.37755676 -52.0136261 11.00332642 C-51.08100449 10.63226776 -50.14838287 10.26120911 -49.1875 9.87890625 C-48.19723312 9.48408051 -47.20696625 9.08925476 -46.18669128 8.6824646 C-44.11127434 7.85807711 -42.03478674 7.03638029 -39.95727539 6.21728516 C-36.78506332 4.96171476 -33.62227379 3.68410431 -30.45898438 2.40625 C-28.43153416 1.60409096 -26.40355685 0.80326261 -24.375 0.00390625 C-23.43630569 -0.37929779 -22.49761139 -0.76250183 -21.5304718 -1.15731812 C-13.31316136 -4.34294045 -8.12447146 -3.3727265 0 0 Z " fill="#002551" transform="translate(250.98046875,17.66015625)"/>
<path d="M0 0 C0.72379107 -0.00579339 1.44758214 -0.01158677 2.19330627 -0.01755571 C4.62518701 -0.03563211 7.05704454 -0.04649181 9.4889679 -0.05725098 C11.23010469 -0.06842571 12.97123934 -0.07993901 14.71237183 -0.09176636 C20.43645737 -0.1283316 26.16056498 -0.15354391 31.88471985 -0.1763916 C32.85863938 -0.18033747 33.8325589 -0.18428333 34.83599114 -0.18834877 C44.02142615 -0.22476667 53.20686883 -0.25620989 62.3923521 -0.27745819 C74.13999342 -0.30503525 85.88703112 -0.35580779 97.63442105 -0.43793249 C105.89525407 -0.49372703 114.15592332 -0.52269463 122.41693813 -0.5319314 C127.35042403 -0.5381882 132.28320214 -0.55630374 137.21648216 -0.60331726 C141.85998345 -0.64702125 146.50239082 -0.65746082 151.14606285 -0.64268875 C152.84722489 -0.64301711 154.5484343 -0.65527083 156.24940872 -0.68053818 C170.68684403 -0.88362419 170.68684403 -0.88362419 175.88552856 3.46801758 C179.36895457 7.14829713 181.18024294 10.4459488 181.20292664 15.54710388 C181.21572159 16.85240051 181.21572159 16.85240051 181.22877502 18.18406677 C181.22741547 19.60460106 181.22741547 19.60460106 181.22602844 21.05383301 C181.23274567 22.05766022 181.23946289 23.06148743 181.24638367 24.09573364 C181.26540617 27.42044002 181.26929101 30.7449447 181.2714386 34.06970215 C181.27786708 36.38696882 181.28459548 38.70423467 181.29161072 41.02149963 C181.30359661 45.88630044 181.30729054 50.75103019 181.30610657 55.61584473 C181.30590411 61.82275308 181.3331247 68.02919979 181.36765099 74.23599911 C181.38999775 79.02755281 181.39394161 83.81899715 181.39288712 88.61059761 C181.39523451 90.89693341 181.40400899 93.18327263 181.41955185 95.46955681 C181.51731367 111.34577919 181.37812502 125.24812196 170.9355011 138.1673584 C170.48046204 138.75774902 170.02542297 139.34813965 169.55659485 139.9564209 C165.99001332 144.03517471 161.67321941 146.62977476 156.97846985 149.23376465 C156.28385147 149.62145523 155.58923309 150.00914581 154.87356567 150.40858459 C145.77271798 155.43192143 136.4416289 160.00316035 127.1230011 164.6048584 C123.55252816 166.37145306 119.98348137 168.14088462 116.41596985 169.91345215 C115.54777618 170.34475433 114.67958252 170.77605652 113.78507996 171.22042847 C105.38551565 175.41056495 97.08061326 179.77481082 88.79751587 184.18995667 C87.87581856 184.67377052 87.87581856 184.67377052 86.9355011 185.1673584 C86.25576233 185.542677 85.57602356 185.91799561 84.87568665 186.3046875 C81.93667297 187.61147054 80.00930342 186.96060538 76.9355011 186.1673584 C74.74122153 185.23476821 72.58191315 184.21749566 70.45503235 183.14001465 C69.84927368 182.83569519 69.24351501 182.53137573 68.61940002 182.21783447 C66.65813412 181.22978315 64.70303753 180.23017131 62.7480011 179.2298584 C61.38490182 178.53947815 60.02153713 177.84962171 58.65791321 177.16027832 C49.9264465 172.73645235 41.23394875 168.239377 32.59565735 163.6361084 C29.09730744 161.77357866 25.58111676 159.94862232 22.05659485 158.1361084 C-11.67586285 140.7777686 -11.67586285 140.7777686 -17.40880489 123.90358067 C-20.41364819 113.88223756 -19.76092871 103.29958046 -19.69340515 92.94470215 C-19.69423537 90.62638742 -19.69670052 88.30807276 -19.70071411 85.98976135 C-19.70355566 81.16116355 -19.68902154 76.33303388 -19.66142273 71.5045166 C-19.62717046 65.32070385 -19.63343121 59.13771771 -19.6520853 52.9538641 C-19.66265157 48.17972422 -19.65372361 43.40577672 -19.63870049 38.63165474 C-19.63352711 36.35071954 -19.63399019 34.0697642 -19.64024544 31.78883171 C-19.64569976 28.60849523 -19.62532059 25.42934654 -19.59794617 22.24914551 C-19.60773499 20.84411018 -19.60773499 20.84411018 -19.61772156 19.41069031 C-19.51269698 12.22945279 -17.35536451 8.6817231 -12.5019989 3.3548584 C-8.50638197 -0.23095167 -5.19138166 0.03263871 0 0 Z M63.9355011 31.1673584 C63.38345131 33.1254435 63.38345131 33.1254435 63.0839386 35.3782959 C62.95503235 36.21103027 62.8261261 37.04376465 62.6933136 37.9017334 C62.50382141 39.20884277 62.50382141 39.20884277 62.3105011 40.5423584 C62.1764386 41.40603027 62.0423761 42.26970215 61.9042511 43.1595459 C61.3374205 46.9075686 60.9355011 50.36076492 60.9355011 54.1673584 C53.3455011 54.1673584 45.7555011 54.1673584 37.9355011 54.1673584 C36.46902515 57.83354827 35.61689301 60.11824317 35.1855011 63.8548584 C35.03854797 65.00534668 35.03854797 65.00534668 34.8886261 66.17907715 C34.71222537 68.40424567 34.71222537 68.40424567 36.9355011 70.1673584 C39.16585407 70.44477085 39.16585407 70.44477085 41.7245636 70.3626709 C42.57228333 70.35767578 43.42000305 70.35268066 44.29341125 70.34753418 C45.3715509 70.32932617 46.44969055 70.31111816 47.5605011 70.2923584 C50.9842511 70.2511084 54.4080011 70.2098584 57.9355011 70.1673584 C56.6155011 78.0873584 55.2955011 86.0073584 53.9355011 94.1673584 C45.0605011 94.5423584 45.0605011 94.5423584 42.26802063 94.64538574 C41.17916565 94.69880127 41.17916565 94.69880127 40.0683136 94.7532959 C38.9528717 94.80042725 38.9528717 94.80042725 37.81489563 94.84851074 C35.69539136 95.02155391 35.69539136 95.02155391 33.9355011 97.1673584 C33.39369103 100.21868858 33.39369103 100.21868858 33.1855011 103.6673584 C33.08753235 104.8326709 32.9895636 105.9979834 32.8886261 107.1986084 C32.59302925 110.28879002 32.59302925 110.28879002 34.9355011 112.1673584 C37.66985071 112.4737443 40.31829931 112.678692 43.0605011 112.7923584 C43.81460266 112.83103027 44.56870422 112.86970215 45.34565735 112.9095459 C47.20853294 113.00386871 49.07198364 113.08670502 50.9355011 113.1673584 C50.83414856 113.79303711 50.73279602 114.41871582 50.62837219 115.06335449 C50.1774614 117.88797729 49.74378752 120.71498088 49.3105011 123.5423584 C49.15065735 124.52720215 48.9908136 125.5120459 48.8261261 126.5267334 C48.68432922 127.46774902 48.54253235 128.40876465 48.3964386 129.3782959 C48.26028137 130.24760742 48.12412415 131.11691895 47.98384094 132.01257324 C47.96788879 132.72365234 47.95193665 133.43473145 47.9355011 134.1673584 C50.72329989 136.95515719 52.55352437 136.46697573 56.4355011 136.4798584 C58.18346985 136.50499512 58.18346985 136.50499512 59.9667511 136.53063965 C60.9464386 136.41075684 61.9261261 136.29087402 62.9355011 136.1673584 C64.91845442 133.19292841 65.30821716 131.91661193 65.7870636 128.49938965 C65.91596985 127.60671387 66.0448761 126.71403809 66.1776886 125.79431152 C66.36718079 124.40115723 66.36718079 124.40115723 66.5605011 122.9798584 C66.6945636 122.0394873 66.8286261 121.09911621 66.9667511 120.13024902 C67.29649772 117.81024598 67.61689732 115.48891791 67.9355011 113.1673584 C74.2055011 112.8373584 80.4755011 112.5073584 86.9355011 112.1673584 C86.69573547 113.73228027 86.45596985 115.29720215 86.2089386 116.9095459 C85.90887473 118.95373099 85.60942738 120.99800665 85.3105011 123.0423584 C85.15065735 124.07489746 84.9908136 125.10743652 84.8261261 126.17126465 C84.68432922 127.15739746 84.54253235 128.14353027 84.3964386 129.1595459 C84.26028137 130.07075195 84.12412415 130.98195801 83.98384094 131.92077637 C83.95991272 133.03283447 83.95991272 133.03283447 83.9355011 134.1673584 C85.82396293 136.49602069 85.82396293 136.49602069 88.9745636 136.3626709 C90.74960266 136.32786621 90.74960266 136.32786621 92.5605011 136.2923584 C93.74901672 136.27431152 94.93753235 136.25626465 96.1620636 136.2376709 C97.07729797 136.21446777 97.99253235 136.19126465 98.9355011 136.1673584 C100.72680138 132.19338129 101.47510713 128.47883144 102.0605011 124.1673584 C102.22807922 122.9711084 102.39565735 121.7748584 102.5683136 120.5423584 C102.87662921 117.70847872 103.01093895 115.01244315 102.9355011 112.1673584 C103.52041321 112.18306885 104.10532532 112.1987793 104.70796204 112.21496582 C107.36704274 112.27746107 110.02596874 112.31639409 112.6855011 112.3548584 C114.06608704 112.39256348 114.06608704 112.39256348 115.4745636 112.43103027 C116.36401672 112.44069824 117.25346985 112.45036621 118.1698761 112.46032715 C118.98681946 112.4760376 119.80376282 112.49174805 120.64546204 112.50793457 C123.50755125 112.08228271 124.85273362 111.14869808 126.9355011 109.1673584 C127.71022235 106.28461697 127.71022235 106.28461697 127.8105011 103.1048584 C127.89042297 102.04138184 127.97034485 100.97790527 128.0526886 99.88220215 C128.23541697 97.01663778 128.23541697 97.01663778 125.9355011 95.1673584 C123.80298017 94.89020944 123.80298017 94.89020944 121.3651886 94.9720459 C120.55807434 94.97704102 119.75096008 94.98203613 118.91938782 94.98718262 C117.8934552 95.00539063 116.86752258 95.02359863 115.8105011 95.0423584 C110.9223761 95.1042334 110.9223761 95.1042334 105.9355011 95.1673584 C107.2555011 87.2473584 108.5755011 79.3273584 109.9355011 71.1673584 C117.8105011 70.7923584 117.8105011 70.7923584 120.28657532 70.68933105 C124.57261698 70.5824006 124.57261698 70.5824006 127.9355011 68.1673584 C128.47553137 65.61010809 128.47553137 65.61010809 128.6855011 62.7298584 C128.78346985 61.76177246 128.8814386 60.79368652 128.9823761 59.79626465 C129.16786904 56.93115034 129.16786904 56.93115034 126.9355011 54.1673584 C124.30853046 53.94598447 121.92656146 53.88573815 119.3105011 53.9798584 C118.60409485 53.99339355 117.8976886 54.00692871 117.1698761 54.02087402 C115.42475982 54.056248 113.68003502 54.11005619 111.9355011 54.1673584 C112.06827454 53.58728027 112.20104797 53.00720215 112.33784485 52.4095459 C114.0439212 44.86295999 115.09047686 37.91614648 114.9355011 30.1673584 C111.78619217 29.11758875 109.54735654 29.06604245 106.2480011 29.1048584 C105.25413391 29.11388184 104.26026672 29.12290527 103.23628235 29.13220215 C102.47702454 29.14380371 101.71776672 29.15540527 100.9355011 29.1673584 C99.2499455 32.1733673 98.54103739 34.74426967 98.0839386 38.1517334 C97.95503235 39.08630371 97.8261261 40.02087402 97.6933136 40.98376465 C97.50382141 42.43589355 97.50382141 42.43589355 97.3105011 43.9173584 C97.1764386 44.90091309 97.0423761 45.88446777 96.9042511 46.89782715 C96.57500305 49.32015208 96.25441002 51.74365061 95.9355011 54.1673584 C89.6655011 54.1673584 83.3955011 54.1673584 76.9355011 54.1673584 C78.4980011 44.9798584 78.4980011 44.9798584 79.00019836 42.11193848 C79.69321056 37.88065664 80.24523629 34.35677628 78.9355011 30.1673584 C75.99320189 29.18659199 73.9446227 29.00247711 70.8730011 28.9798584 C69.99514954 28.96567871 69.11729797 28.95149902 68.21284485 28.93688965 C65.73625055 28.94506404 65.73625055 28.94506404 63.9355011 31.1673584 Z " fill="#0069D5" transform="translate(158.0644989013672,233.8326416015625)"/>
<path d="M0 0 C0.99 0.495 0.99 0.495 2 1 C3.68081923 1.22113116 5.36348578 1.4282748 7.046875 1.62890625 C15.64528464 3.01620189 23.29998161 6.52212121 31.25 9.9375 C33.51117244 10.89442934 35.77384818 11.8477276 38.0368042 12.8004303 C39.43180445 13.38926598 40.82551134 13.98118003 42.21759033 14.57688904 C46.77744742 16.52212782 51.3468246 18.25505923 56 20 C56.33 33.86 56.66 47.72 57 62 C63.27 63.98 69.54 65.96 76 68 C75.98839844 66.44667969 75.97679687 64.89335938 75.96484375 63.29296875 C75.95546516 61.2578137 75.94636503 59.22265735 75.9375 57.1875 C75.92912109 56.16333984 75.92074219 55.13917969 75.91210938 54.08398438 C75.90888672 53.10107422 75.90566406 52.11816406 75.90234375 51.10546875 C75.89710693 50.19949951 75.89187012 49.29353027 75.88647461 48.36010742 C76 46 76 46 77 43 C79.62812343 41.81822638 82.16211969 40.81389249 84.875 39.875 C85.97521484 39.47861328 85.97521484 39.47861328 87.09765625 39.07421875 C97.03978608 35.50664211 102.91550539 35.54095636 112.6171875 39.46484375 C113.51494904 39.8176088 114.41271057 40.17037384 115.337677 40.53382874 C118.18796864 41.6573334 121.03128637 42.79746348 123.875 43.9375 C125.80948917 44.70090111 127.74438126 45.46328202 129.6796875 46.22460938 C131.51337726 46.94962 133.34672329 47.67550075 135.1796875 48.40234375 C136.04939178 48.74716293 136.91909607 49.09198212 137.81515503 49.44725037 C138.61333649 49.76750687 139.41151794 50.08776337 140.23388672 50.41772461 C140.93891327 50.69974228 141.64393982 50.98175995 142.37033081 51.27232361 C144 52 144 52 145 53 C145.16029688 55.95529504 145.25957328 58.88982457 145.31640625 61.84765625 C145.33718735 62.7340831 145.35796844 63.62050995 145.37937927 64.53379822 C145.444974 67.376617 145.50380552 70.21953117 145.5625 73.0625 C145.6056758 74.98503606 145.64928978 76.90756234 145.69335938 78.83007812 C145.80149336 83.55328893 145.90049247 88.27656792 146 93 C154.415 95.97 154.415 95.97 163 99 C162.67 97.35 162.34 95.7 162 94 C161.88324313 91.50194594 161.82500375 89.00074987 161.8125 86.5 C161.79832031 85.2109375 161.78414062 83.921875 161.76953125 82.59375 C162.14572349 76.72770146 162.14572349 76.72770146 164 74 C166.85883226 72.25708626 169.85931106 71.13640195 173 70 C174.22009766 69.49533203 174.22009766 69.49533203 175.46484375 68.98046875 C190.06950361 63.55851762 211.9325663 77.57302652 223 82 C223 109.06 223 136.12 223 164 C219.55711471 165.14762843 218.64424575 164.82476564 215.26123047 163.79272461 C214.30628693 163.50692032 213.35134338 163.22111603 212.36746216 162.926651 C211.33612152 162.60925461 210.30478088 162.29185822 209.2421875 161.96484375 C207.04554288 161.30614273 204.84859542 160.64845088 202.65136719 159.99169922 C201.53596558 159.65612 200.42056396 159.32054077 199.2713623 158.97479248 C194.44769202 157.53744709 189.60514166 156.17143979 184.7578125 154.81640625 C183.35915199 154.42435501 183.35915199 154.42435501 181.93223572 154.02438354 C178.99687995 153.20235626 176.06097132 152.38232579 173.125 151.5625 C172.08759674 151.2722998 171.05019348 150.98209961 169.98135376 150.68310547 C156.86028054 147.01270224 143.73218495 143.36803651 130.59765625 139.74609375 C129.95375191 139.56852602 129.30984756 139.39095829 128.64643097 139.20800972 C120.57127273 136.98147322 112.49489327 134.75940275 104.41757202 132.54072571 C101.05834877 131.61520716 97.70148976 130.68146523 94.34472656 129.74707031 C90.17943 128.59014057 86.00598758 127.47831776 81.81933594 126.40136719 C80.85441727 126.14552856 79.8894986 125.88968994 78.89533997 125.62609863 C77.11190296 125.15329601 75.32437303 124.69553617 73.53227234 124.25671387 C66.49271909 122.35596315 63.76269792 119.33133317 59.94140625 113.09375 C51.61676504 99.82792336 34.16060486 90.70241061 19.2734375 87.09765625 C15.85579074 86.35454067 12.43578527 85.6534923 9 85 C9 84.34 9 83.68 9 83 C6.03 83 3.06 83 0 83 C0 55.61 0 28.22 0 0 Z " fill="#006AD7" transform="translate(240,16)"/>
<path d="M0 0 C21.59298072 0 21.59298072 0 32.9375 6.375 C34.41162354 7.17006958 34.41162354 7.17006958 35.91552734 7.98120117 C40.90112317 10.68209909 45.83559105 13.46979841 50.76171875 16.27734375 C51.66607666 16.78797363 52.57043457 17.29860352 53.50219727 17.82470703 C55.21556007 18.79661738 56.92096376 19.78273234 58.61694336 20.78466797 C59.38530518 21.22311035 60.15366699 21.66155273 60.9453125 22.11328125 C61.61062988 22.50298096 62.27594727 22.89268066 62.96142578 23.29418945 C66.31571018 24.45553511 68.66665997 23.59244011 71.84677124 22.1794281 C74.07763118 21.095806 76.27806379 19.96424927 78.4765625 18.81640625 C79.68715836 18.19305641 79.68715836 18.19305641 80.92221069 17.55711365 C82.62313797 16.67988432 84.32254231 15.79969655 86.02050781 14.91674805 C88.61985231 13.56517662 91.22350788 12.22223719 93.828125 10.88085938 C95.48202828 10.02653988 97.13568276 9.17173852 98.7890625 8.31640625 C99.56722321 7.91426407 100.34538391 7.51212189 101.14712524 7.09779358 C101.87152802 6.72077805 102.59593079 6.34376251 103.34228516 5.95532227 C103.97784332 5.62524673 104.61340149 5.2951712 105.26821899 4.95509338 C106.89657337 4.05704075 108.4527362 3.0315092 110 2 C117.87183663 0.42563267 125.98336597 0.42192811 134 0 C134 23.1 134 46.2 134 70 C123.48125 72.825625 112.9625 75.65125 102.125 78.5625 C98.82258301 79.45912354 95.52016602 80.35574707 92.11767578 81.27954102 C89.4772464 81.98068046 86.83648031 82.68055362 84.1953125 83.37890625 C83.52233124 83.56436508 82.84934998 83.74982391 82.15597534 83.94090271 C68.51343229 87.69065543 59.15560177 86.29585993 45.625 82.65625 C44.37871826 82.32709595 43.13243652 81.99794189 41.84838867 81.65881348 C39.23181545 80.96744401 36.61661723 80.27117973 34.00244141 79.57080078 C30.65068235 78.67286356 27.29668562 77.78366239 23.94177246 76.89759064 C20.73122864 76.04926152 17.52184502 75.19660411 14.3125 74.34375 C13.1073877 74.02394165 11.90227539 73.7041333 10.66064453 73.37463379 C9.55188965 73.07762573 8.44313477 72.78061768 7.30078125 72.47460938 C6.32278564 72.2133728 5.34479004 71.95213623 4.3371582 71.6829834 C2 71 2 71 0 70 C0 46.9 0 23.8 0 0 Z " fill="#002551" transform="translate(172,418)"/>
<path d="M0 0 C10.67735673 8.37382929 18.33952383 18.21561159 23 31 C23.26401611 31.66572021 23.52803223 32.33144043 23.80004883 33.01733398 C27.20616646 43.05911054 26.32344532 53.72997055 26.1875 64.1875 C26.17242767 66.20897442 26.15874378 68.23045969 26.14648438 70.25195312 C26.11624756 75.16845967 26.0574912 80.0834375 26 85 C19.07 85 12.14 85 5 85 C4.10119348 76.47178932 3.93623732 68.17034211 4.12695312 59.60546875 C4.28071697 46.23705907 1.68793329 34.64319666 -6.88671875 24.140625 C-15.17152005 15.74862664 -25.20756527 11.77265831 -36.8125 11.5 C-47.57464012 11.53888872 -57.1647914 15.56884924 -65 23 C-71.51340758 30.01327374 -75.99126093 39.46263645 -76.20532227 49.12597656 C-76.22526749 49.92650452 -76.24521271 50.72703247 -76.26576233 51.55181885 C-76.29083107 52.83327789 -76.29083107 52.83327789 -76.31640625 54.140625 C-76.33718735 55.02280701 -76.35796844 55.90498901 -76.37937927 56.81390381 C-76.44464867 59.62585831 -76.50365447 62.43790445 -76.5625 65.25 C-76.60570673 67.15886356 -76.64932171 69.06771793 -76.69335938 70.9765625 C-76.8010735 75.65094918 -76.90031495 80.32540761 -77 85 C-83.93 85 -90.86 85 -98 85 C-98.06940789 79.39852648 -98.12897625 73.79858471 -98.16479492 68.19702148 C-98.17974885 66.29723007 -98.20011943 64.39747236 -98.22631836 62.49780273 C-98.49930189 42.1739113 -96.1876653 24.54780917 -81.30859375 9.2421875 C-80.54675781 8.50226563 -79.78492188 7.76234375 -79 7 C-78.28972656 6.28070313 -77.57945312 5.56140625 -76.84765625 4.8203125 C-71.2257144 -0.56780537 -65.16364358 -4.00582085 -58 -7 C-57.195625 -7.34160156 -56.39125 -7.68320313 -55.5625 -8.03515625 C-37.69976858 -14.18978326 -15.36673236 -10.51526767 0 0 Z " fill="#0069D4" transform="translate(275,129)"/>
<path d="M0 0 C9.27483703 0 18.15561152 0.1936925 27.3359375 1.05859375 C28.54013336 1.1672023 29.74432922 1.27581085 30.98501587 1.38771057 C34.78223717 1.73179071 38.57858435 2.08465439 42.375 2.4375 C44.9413569 2.67046619 47.50776287 2.9028924 50.07421875 3.13476562 C70.16986082 4.96402516 70.16986082 4.96402516 78 6 C79.0815958 9.2447874 79.12690702 11.60265291 79.12939453 15.01611328 C79.13254669 16.25394562 79.13569885 17.49177795 79.13894653 18.76712036 C79.13715703 20.11818477 79.13510615 21.46924885 79.1328125 22.8203125 C79.13348602 24.20368466 79.13445644 25.58705671 79.13571167 26.97042847 C79.13718541 29.86717864 79.1350438 32.76389795 79.13037109 35.66064453 C79.12466332 39.38109341 79.12796145 43.10147032 79.13394356 46.82191658 C79.13754881 49.67683459 79.13641094 52.53173539 79.13381577 55.3866539 C79.13314695 56.75904219 79.13397336 58.13143202 79.13629532 59.50381851 C79.13882236 61.41677065 79.13429082 63.32972824 79.12939453 65.24267578 C79.12859894 66.3328299 79.12780334 67.42298401 79.12698364 68.5461731 C79 71 79 71 78 72 C69.77167716 71.53871775 61.97337377 69.35287205 54.04296875 67.25390625 C52.60820948 66.87855749 51.17333699 66.50364127 49.73835754 66.12913513 C46.74776343 65.34716964 43.75835551 64.56086712 40.76977539 63.77124023 C36.94413338 62.76069714 33.11603755 61.75984088 29.28705883 60.76202488 C26.33076991 59.99073498 23.37565488 59.21502636 20.42089272 58.43791008 C19.00943929 58.06712246 17.59766654 57.69754815 16.18556786 57.32922554 C14.21525121 56.81445206 12.24662266 56.29323035 10.27807617 55.77172852 C8.60004158 55.3299099 8.60004158 55.3299099 6.8881073 54.87916565 C4 54 4 54 0 52 C0 34.84 0 17.68 0 0 Z " fill="#002551" transform="translate(78,411)"/>
<path d="M0 0 C0 17.16 0 34.32 0 52 C-24.19305544 58.91230156 -24.19305544 58.91230156 -35.01171875 61.6484375 C-36.19804398 61.95069244 -37.3843692 62.25294739 -38.60664368 62.56436157 C-41.06168384 63.18909199 -43.51710167 63.81234018 -45.97290039 64.43408203 C-49.74929128 65.3906519 -53.52411513 66.3532388 -57.29882812 67.31640625 C-59.70303605 67.92743344 -62.10732962 68.53812374 -64.51171875 69.1484375 C-65.6385759 69.43584808 -66.76543304 69.72325867 -67.92643738 70.01937866 C-68.95964615 70.28030304 -69.99285492 70.54122742 -71.05737305 70.81005859 C-72.4213044 71.15597549 -72.4213044 71.15597549 -73.81278992 71.50888062 C-76 72 -76 72 -78 72 C-78 50.22 -78 28.44 -78 6 C-75.12719157 4.56359578 -72.42791108 4.59206675 -69.22705078 4.31982422 C-68.53092682 4.25955048 -67.83480286 4.19927673 -67.11758423 4.13717651 C-64.81050606 3.93869088 -62.50296242 3.74640359 -60.1953125 3.5546875 C-58.5934812 3.41937099 -56.99166457 3.2838808 -55.38986206 3.14822388 C-52.02918327 2.86467854 -48.66825076 2.58439435 -45.30712891 2.30615234 C-41.00003694 1.9491751 -36.69384187 1.58241303 -32.38780403 1.21296501 C-29.07849721 0.93042494 -25.7687022 0.6539789 -22.45873642 0.37927628 C-20.87094485 0.24659239 -19.28332758 0.11180545 -17.69589615 -0.02511978 C-15.47498242 -0.2159413 -13.25352914 -0.39833324 -11.03173828 -0.57861328 C-9.76758087 -0.68440704 -8.50342346 -0.79020081 -7.20095825 -0.89920044 C-4 -1 -4 -1 0 0 Z " fill="#0068D4" transform="translate(400,411)"/>
<path d="M0 0 C0 23.1 0 46.2 0 70 C-9.920625 72.64 -19.84125 75.28 -30.0625 78 C-33.18340088 78.8353125 -36.30430176 79.670625 -39.51977539 80.53125 C-42.00388808 81.18818454 -44.48817046 81.84447792 -46.97265625 82.5 C-47.61045517 82.67208984 -48.24825409 82.84417969 -48.90538025 83.02148438 C-50.80332239 83.5328578 -52.7044862 84.03222673 -54.60571289 84.53125 C-56.20788414 84.95760742 -56.20788414 84.95760742 -57.84242249 85.39257812 C-61 86 -61 86 -68 86 C-67.505 56.3 -67.505 56.3 -67 26 C-61.72 23.36 -56.44 20.72 -51 18 C-49.68 16.68 -48.36 15.36 -47 14 C-44.75756836 12.65966797 -44.75756836 12.65966797 -42.33984375 11.4921875 C-41.46392578 11.06292969 -40.58800781 10.63367188 -39.68554688 10.19140625 C-38.77869141 9.75699219 -37.87183594 9.32257813 -36.9375 8.875 C-35.13329847 7.99907484 -33.3298785 7.12153754 -31.52734375 6.2421875 C-30.73062256 5.8591748 -29.93390137 5.47616211 -29.11303711 5.08154297 C-26.79425315 3.9456547 -26.79425315 3.9456547 -24 2 C-20.04505894 0.96320122 -16.07026582 0.71382193 -12 0.4375 C-10.80375 0.35371094 -9.6075 0.26992188 -8.375 0.18359375 C-5.58678497 0.03192002 -2.79233737 0 0 0 Z " fill="#006AD9" transform="translate(306,418)"/>
<path d="M0 0 C20.69076493 0 20.69076493 0 30.9140625 0.4375 C32.39072388 0.49647461 32.39072388 0.49647461 33.8972168 0.55664062 C37.47330499 0.70049193 41.04914042 0.85057348 44.625 1 C56.690625 1.495 56.690625 1.495 69 2 C69 20.81 69 39.62 69 59 C59.656875 59.495 50.31375 59.99 40.6875 60.5 C37.75963623 60.65662109 34.83177246 60.81324219 31.81518555 60.97460938 C29.46404187 61.09788381 27.11288698 61.22094468 24.76171875 61.34375 C23.56567017 61.40852539 22.36962158 61.47330078 21.1373291 61.54003906 C19.96109985 61.60094727 18.78487061 61.66185547 17.57299805 61.72460938 C16.567061 61.77790405 15.56112396 61.83119873 14.52470398 61.8861084 C9.68551276 62.04247422 4.84171683 62 0 62 C0 41.54 0 21.08 0 0 Z " fill="#0067D2" transform="translate(377,333)"/>
<path d="M0 0 C0 20.46 0 40.92 0 62 C-8.1337934 62 -16.19010994 61.94859665 -24.3046875 61.59765625 C-25.31290558 61.55563583 -26.32112366 61.51361542 -27.3598938 61.47032166 C-29.46557348 61.38173699 -31.57119532 61.29176701 -33.67675781 61.20043945 C-36.8884941 61.061918 -40.10046162 60.93013633 -43.3125 60.79882812 C-45.37241305 60.7113419 -47.43230955 60.62346511 -49.4921875 60.53515625 C-50.91892288 60.47727684 -50.91892288 60.47727684 -52.3744812 60.41822815 C-66.19659948 59.80340052 -66.19659948 59.80340052 -68 58 C-68.09881593 56.28681054 -68.12798969 54.56955197 -68.12939453 52.85351562 C-68.13412277 51.20675842 -68.13412277 51.20675842 -68.13894653 49.5267334 C-68.1369223 48.33197388 -68.13489807 47.13721436 -68.1328125 45.90625 C-68.13376923 44.68925415 -68.13472595 43.4722583 -68.13571167 42.21838379 C-68.13639372 39.63924101 -68.13453772 37.06009653 -68.13037109 34.48095703 C-68.12502322 30.51721364 -68.13031529 26.55358358 -68.13671875 22.58984375 C-68.13605797 20.09114558 -68.13477682 17.59244748 -68.1328125 15.09375 C-68.13483673 13.89899048 -68.13686096 12.70423096 -68.13894653 11.4732666 C-68.13579437 10.37542847 -68.13264221 9.27759033 -68.12939453 8.14648438 C-68.12859894 7.1746521 -68.12780334 6.20281982 -68.12698364 5.20153809 C-68 3 -68 3 -67 2 C-58.56272957 0.69009921 -49.89327856 0.72233925 -41.37011719 0.49731445 C-39.16324691 0.43851897 -36.95665399 0.37300801 -34.75 0.30664062 C-23.1536523 -0.01548014 -11.61269619 0 0 0 Z " fill="#002551" transform="translate(100,333)"/>
<path d="M0 0 C10.12591274 1.12510142 10.12591274 1.12510142 15.31420898 2.47460938 C16.46827744 2.77161743 17.62234589 3.06862549 18.81138611 3.37463379 C20.02733963 3.69444214 21.24329315 4.01425049 22.49609375 4.34375 C24.40093285 4.83748108 24.40093285 4.83748108 26.34425354 5.34118652 C29.01363228 6.03338586 31.68190851 6.72963044 34.34936523 7.42919922 C37.76981468 8.32616987 41.19216597 9.21560609 44.61526394 10.10240936 C47.88876679 10.95090864 51.16118254 11.80354962 54.43359375 12.65625 C55.66371689 12.97605835 56.89384003 13.2958667 58.16123962 13.62536621 C59.29324295 13.92237427 60.42524628 14.21938232 61.59155273 14.52539062 C62.59032944 14.7866272 63.58910614 15.04786377 64.6181488 15.3170166 C67 16 67 16 69 17 C69 35.15 69 53.3 69 72 C57.74881252 70.87488125 57.74881252 70.87488125 52.77172852 69.89257812 C51.66100479 69.67565308 50.55028107 69.45872803 49.40589905 69.23522949 C48.24199142 69.00291626 47.0780838 68.77060303 45.87890625 68.53125 C44.65719223 68.29088013 43.43547821 68.05051025 42.17674255 67.80285645 C39.61226794 67.29736018 37.04823197 66.78963397 34.48461914 66.27978516 C30.55128135 65.49776954 26.61661838 64.72293519 22.68164062 63.94921875 C20.18481352 63.45614579 17.68806584 62.96267048 15.19140625 62.46875 C14.01332901 62.23643677 12.83525177 62.00412354 11.62147522 61.76477051 C9.98848732 61.43938293 9.98848732 61.43938293 8.32250977 61.10742188 C7.36449966 60.91724487 6.40648956 60.72706787 5.41944885 60.53112793 C3 60 3 60 0 59 C0 39.53 0 20.06 0 0 Z " fill="#0069D4" transform="translate(377,176)"/>
<path d="M0 0 C0 19.8 0 39.6 0 60 C-19.75 63.75 -19.75 63.75 -25.84277344 64.90527344 C-27.51500057 65.22316733 -29.1872018 65.54119754 -30.859375 65.859375 C-32.22252838 66.11796295 -32.22252838 66.11796295 -33.61322021 66.3817749 C-38.29677992 67.27481238 -42.97334638 68.19286878 -47.64257812 69.15820312 C-48.54639221 69.3440094 -49.4502063 69.52981567 -50.38140869 69.72125244 C-52.08639009 70.07359446 -53.79037258 70.43082025 -55.49310303 70.79388428 C-56.26140442 70.95245911 -57.02970581 71.11103394 -57.82128906 71.27441406 C-58.48614319 71.41494202 -59.15099731 71.55546997 -59.83599854 71.70025635 C-62.53341255 72.0738849 -65.2768326 72 -68 72 C-68 53.85 -68 35.7 -68 17 C-57.87123861 13.6237462 -57.87123861 13.6237462 -52.99291992 12.37426758 C-51.90536911 12.09420364 -50.8178183 11.81413971 -49.6973114 11.52558899 C-48.55325333 11.23483994 -47.40919525 10.94409088 -46.23046875 10.64453125 C-45.0319075 10.33803146 -43.83334625 10.03153168 -42.59846497 9.71574402 C-40.0801514 9.07289064 -37.5614001 8.43174988 -35.04223633 7.79223633 C-32.46266765 7.13660208 -29.88378681 6.47884063 -27.3059082 5.81665039 C-23.57366649 4.8585163 -19.83983591 3.90684336 -16.10546875 2.95703125 C-14.95128952 2.6602095 -13.79711029 2.36338776 -12.60795593 2.05757141 C-11.53616592 1.78696396 -10.46437592 1.51635651 -9.36010742 1.23754883 C-8.41906662 0.99788895 -7.47802582 0.75822906 -6.50846863 0.51130676 C-4 0 -4 0 0 0 Z " fill="#002551" transform="translate(100,176)"/>
<path d="M0 0 C0 21.12 0 42.24 0 64 C-4.96818097 65.65606032 -10.17340386 65.67107554 -15.375 66.0625 C-17.05142578 66.19881836 -17.05142578 66.19881836 -18.76171875 66.33789062 C-26.5221473 66.93312534 -34.21829671 67.10845859 -42 67 C-42.84071869 63.37679802 -43.09858697 60.0983702 -43.02172852 56.38354492 C-43.00163223 55.28278122 -42.98153595 54.18201752 -42.96083069 53.04789734 C-42.93379562 51.8706459 -42.90676056 50.69339447 -42.87890625 49.48046875 C-42.85529526 48.26676102 -42.83168427 47.05305328 -42.80735779 45.80256653 C-42.73086082 41.93075458 -42.64677591 38.05914968 -42.5625 34.1875 C-42.50926537 31.56055696 -42.45652506 28.93360386 -42.40429688 26.30664062 C-42.2752645 19.87096598 -42.14000385 13.43544481 -42 7 C-36.50133177 5.99975846 -31.00205968 5.00293171 -25.50219727 4.00927734 C-23.63093302 3.67070008 -21.75983784 3.33118701 -19.88891602 2.99072266 C-17.20112202 2.50177366 -14.51273983 2.01618302 -11.82421875 1.53125 C-10.98662521 1.37813354 -10.14903168 1.22501709 -9.28605652 1.06726074 C-6.15199678 0.50457391 -3.19126586 0 0 0 Z " fill="#002551" transform="translate(120,250)"/>
<path d="M0 0 C14.0504646 2.00720923 28.05755814 4.34429679 42 7 C42 26.47 42 45.94 42 66 C38.02321294 66.99419676 35.38036044 66.97798816 31.328125 66.6953125 C29.37132812 66.56189453 29.37132812 66.56189453 27.375 66.42578125 C26.69695312 66.37631348 26.01890625 66.3268457 25.3203125 66.27587891 C23.27123576 66.12654761 21.22170303 65.98625146 19.171875 65.84765625 C12.73534468 65.39785935 6.41073681 64.8013421 0 64 C0 42.88 0 21.76 0 0 Z " fill="#0068D4" transform="translate(358,250)"/>
<path d="M0 0 C-0.20568604 1.04546997 -0.20568604 1.04546997 -0.41552734 2.11206055 C-2.27920519 12.66094432 -2.44231842 23.12657919 -2.625 33.8125 C-2.66327505 35.68035484 -2.70233192 37.54819384 -2.7421875 39.41601562 C-2.83712759 43.94387839 -2.92152649 48.47182315 -3 53 C-4.16772949 53.32685791 -5.33545898 53.65371582 -6.53857422 53.99047852 C-8.08571338 54.43209936 -9.63274556 54.87409509 -11.1796875 55.31640625 C-11.94756592 55.53026978 -12.71544434 55.7441333 -13.5065918 55.96447754 C-20.2960419 57.91967882 -25.62507632 60.7388378 -30.73828125 65.6796875 C-35.51535516 70.27007117 -39.41892428 70.9735168 -46 71 C-47.26375249 68.47249503 -47.12699969 66.72413629 -47.12939453 63.89526367 C-47.13254669 62.83043259 -47.13569885 61.7656015 -47.13894653 60.66850281 C-47.1369223 59.51332657 -47.13489807 58.35815033 -47.1328125 57.16796875 C-47.13376923 55.98407059 -47.13472595 54.80017242 -47.13571167 53.58039856 C-47.13639331 51.07109525 -47.13454017 48.56179018 -47.13037109 46.05249023 C-47.12503681 42.21398945 -47.13030934 38.37560643 -47.13671875 34.53710938 C-47.13605769 32.10156224 -47.13477594 29.66601518 -47.1328125 27.23046875 C-47.13483673 26.0813652 -47.13686096 24.93226166 -47.13894653 23.74833679 C-47.13579437 22.67404922 -47.13264221 21.59976166 -47.12939453 20.49291992 C-47.12859894 19.55075119 -47.12780334 18.60858246 -47.12698364 17.63786316 C-46.99995315 14.99902681 -46.58672817 12.57239115 -46 10 C-40.41553764 8.56671819 -34.82878944 7.14285236 -29.23974609 5.72753906 C-27.34000496 5.2450754 -25.44090594 4.76007582 -23.54248047 4.27246094 C-20.80862941 3.57073908 -18.07257488 2.87826454 -15.3359375 2.1875 C-14.49195404 1.96876221 -13.64797058 1.75002441 -12.77841187 1.5246582 C-8.41490961 0.43316497 -4.53892531 -0.25679917 0 0 Z " fill="#002551" transform="translate(161,161)"/>
<path d="M0 0 C5.70336852 0.61147775 11.10497075 1.64018782 16.65625 3.06640625 C17.83785706 3.36393044 17.83785706 3.36393044 19.04333496 3.66746521 C21.53004228 4.29468693 24.01502006 4.92847319 26.5 5.5625 C28.19780613 5.99197367 29.89572187 6.42101426 31.59375 6.84960938 C35.73044998 7.89474016 39.86561337 8.94575682 44 10 C44.82666631 13.60410953 45.12201844 16.92198007 45.11352539 20.61645508 C45.11344986 21.71721878 45.11337433 22.81798248 45.11329651 23.95210266 C45.10813522 25.1293541 45.10297394 26.30660553 45.09765625 27.51953125 C45.0962413 28.73323898 45.09482635 29.94694672 45.09336853 31.19743347 C45.08777665 35.06914752 45.07522558 38.94080347 45.0625 42.8125 C45.05748395 45.43945229 45.05292123 48.06640549 45.04882812 50.69335938 C45.03780987 57.12892603 45.02107976 63.56445886 45 70 C40.65478291 71.4484057 37.2103212 70.72339573 33 69 C31.29937809 67.39040895 29.98970115 65.67389081 28.578125 63.80859375 C23.63456356 58.14307656 15.19578039 55.40712399 8 54 C6.00009067 53.98095619 3.99988871 53.97890159 2 54 C1.97494385 52.79053711 1.9498877 51.58107422 1.92407227 50.33496094 C1.82902321 45.7948366 1.72905147 41.25483108 1.62768555 36.71484375 C1.5847015 34.75979415 1.5430055 32.80471574 1.50268555 30.84960938 C1.19353088 15.40060334 1.19353088 15.40060334 0 0 Z " fill="#0067D1" transform="translate(318,161)"/>
<path d="M0 0 C0.02312851 7.54498233 0.04091769 15.08996101 0.05181217 22.63497066 C0.05703989 26.13808885 0.0641355 29.64118285 0.07543945 33.14428711 C0.08834206 37.16780841 0.09322912 41.19130414 0.09765625 45.21484375 C0.10281754 46.47836166 0.10797882 47.74187958 0.11329651 49.04368591 C0.11337204 50.204814 0.11344757 51.36594208 0.11352539 52.56225586 C0.115746 53.59039902 0.11796661 54.61854218 0.12025452 55.67784119 C0 58 0 58 -1 59 C-3.77640452 59.24312299 -6.53034502 59.42673061 -9.3125 59.5625 C-10.52860962 59.6251001 -10.52860962 59.6251001 -11.76928711 59.68896484 C-25.44848752 60.3528064 -25.44848752 60.3528064 -31 60 C-32 59 -32 59 -32.12025452 56.82969666 C-32.11803391 55.87261307 -32.11581329 54.91552948 -32.11352539 53.92944336 C-32.11344986 52.84839828 -32.11337433 51.76735321 -32.11329651 50.65354919 C-32.10813522 49.4775264 -32.10297394 48.3015036 -32.09765625 47.08984375 C-32.0962413 45.89267227 -32.09482635 44.69550079 -32.09336853 43.46205139 C-32.08774979 39.62050934 -32.07519411 35.77902457 -32.0625 31.9375 C-32.05748741 29.34049563 -32.05292409 26.74349035 -32.04882812 24.14648438 C-32.03777427 17.76430321 -32.02101792 11.3821557 -32 5 C-31.26362305 4.85377197 -30.52724609 4.70754395 -29.76855469 4.55688477 C-26.42883458 3.89310091 -23.089415 3.22781704 -19.75 2.5625 C-18.01169922 2.21735352 -18.01169922 2.21735352 -16.23828125 1.86523438 C-15.12324219 1.64287109 -14.00820313 1.42050781 -12.859375 1.19140625 C-11.83295898 0.98717041 -10.80654297 0.78293457 -9.74902344 0.57250977 C-7.07882529 0.05419287 -7.07882529 0.05419287 -4.82128906 -0.63696289 C-3 -1 -3 -1 0 0 Z " fill="#002551" transform="translate(64,260)"/>
<path d="M0 0 C7.73151599 0.594732 15.10949384 1.16774827 22.6875 2.5 C23.47060547 2.63019531 24.25371094 2.76039063 25.06054688 2.89453125 C30.72417677 3.86208838 30.72417677 3.86208838 33 5 C33 23.15 33 41.3 33 60 C22.31252031 60 11.63933765 59.01327025 1 58 C0.505 29.29 0.505 29.29 0 0 Z " fill="#006AD9" transform="translate(413,260)"/>
<path d="M0 0 C2.3336843 -0.05585946 4.66593793 -0.09451785 7 -0.125 C8.299375 -0.14820313 9.59875 -0.17140625 10.9375 -0.1953125 C17.99111853 0.07681784 24.99564343 1.12445543 32 2 C32 18.83 32 35.66 32 53 C21.85738468 51.87304274 21.85738468 51.87304274 17.8515625 50.87890625 C16.56185547 50.55889648 16.56185547 50.55889648 15.24609375 50.23242188 C14.38113281 50.01134766 13.51617187 49.79027344 12.625 49.5625 C11.73683594 49.34529297 10.84867188 49.12808594 9.93359375 48.90429688 C9.08152344 48.68966797 8.22945312 48.47503906 7.3515625 48.25390625 C6.58666504 48.06127197 5.82176758 47.8686377 5.03369141 47.67016602 C3 47 3 47 0 45 C-0.36076355 43.05111694 -0.36076355 43.05111694 -0.34057617 40.64208984 C-0.34034958 39.74130707 -0.34012299 38.84052429 -0.33988953 37.91244507 C-0.32440567 36.93844757 -0.30892181 35.96445007 -0.29296875 34.9609375 C-0.28872391 33.96494537 -0.28447906 32.96895325 -0.28010559 31.94277954 C-0.2632768 28.75324775 -0.22561676 25.56434167 -0.1875 22.375 C-0.1724586 20.21615494 -0.15876925 18.0573 -0.14648438 15.8984375 C-0.11335967 10.59874388 -0.06311896 5.29941663 0 0 Z " fill="#002550" transform="translate(32,407)"/>
<path d="M0 0 C0 15.18 0 30.36 0 46 C-4.5375 47.155 -9.075 48.31 -13.75 49.5 C-15.17538086 49.86544922 -16.60076172 50.23089844 -18.06933594 50.60742188 C-19.19629883 50.89166016 -20.32326172 51.17589844 -21.484375 51.46875 C-22.63647461 51.76201172 -23.78857422 52.05527344 -24.97558594 52.35742188 C-28 53 -28 53 -32 53 C-32 36.17 -32 19.34 -32 2 C-12 0 -12 0 0 0 Z " fill="#0066CE" transform="translate(446,407)"/>
<path d="M0 0 C1.65 0 3.3 0 5 0 C5.03738281 1.29292969 5.07476562 2.58585937 5.11328125 3.91796875 C5.75604624 22.2907775 8.17659658 37.95532007 21 52 C21 52.66 21 53.32 21 54 C21.54140625 54.2475 22.0828125 54.495 22.640625 54.75 C25.5282849 56.27988604 28.09776018 58.09150997 30.75 60 C31.73484375 60.70125 32.7196875 61.4025 33.734375 62.125 C34.48203125 62.74375 35.2296875 63.3625 36 64 C36 64.66 36 65.32 36 66 C31.49979316 65.86015544 26.99989394 65.71205005 22.5 65.5625 C21.2315625 65.52318359 19.963125 65.48386719 18.65625 65.44335938 C5.30473357 64.99135491 5.30473357 64.99135491 0 64 C-1.21935759 61.56128482 -1.12689752 59.99135193 -1.12939453 57.26586914 C-1.13254669 56.28046646 -1.13569885 55.29506378 -1.13894653 54.27980042 C-1.1369223 53.20906784 -1.13489807 52.13833527 -1.1328125 51.03515625 C-1.13376923 49.93207626 -1.13472595 48.82899628 -1.13571167 47.69248962 C-1.13639359 45.34959863 -1.13453851 43.00670575 -1.13037109 40.66381836 C-1.12506863 37.1085168 -1.13029188 33.55334424 -1.13671875 29.99804688 C-1.13605708 27.71874972 -1.13477407 25.43945265 -1.1328125 23.16015625 C-1.13483673 22.10764175 -1.13686096 21.05512726 -1.13894653 19.97071838 C-1.1180894 13.26281738 -0.72151616 6.66895898 0 0 Z " fill="#002754" transform="translate(115,332)"/>
<path d="M0 0 C0.99 0.66 1.98 1.32 3 2 C1.35 2.33 -0.3 2.66 -2 3 C-2.33 15.54 -2.66 28.08 -3 41 C-7.77945455 40.20342424 -11.16914688 39.28431343 -15.5625 37.5 C-19.39427871 35.94743007 -22.94123376 34.75319971 -27 34 C-27.02898816 30.06251542 -27.04679464 26.12505821 -27.0625 22.1875 C-27.07087891 21.06794922 -27.07925781 19.94839844 -27.08789062 18.79492188 C-27.09111328 17.72177734 -27.09433594 16.64863281 -27.09765625 15.54296875 C-27.10289307 14.55321045 -27.10812988 13.56345215 -27.11352539 12.54370117 C-27 10 -27 10 -26 7 C-23.37187657 5.81822638 -20.83788031 4.81389249 -18.125 3.875 C-17.39152344 3.61074219 -16.65804688 3.34648438 -15.90234375 3.07421875 C-10.293449 1.06155524 -6.00393602 -0.32163943 0 0 Z " fill="#002755" transform="translate(343,52)"/>
<path d="M0 0 C1.32 0 2.64 0 4 0 C4.15360204 8.19681109 4.30178366 16.39369425 4.4429636 24.59072781 C4.50868469 28.39655882 4.57630279 32.20233677 4.64819336 36.00805664 C4.7174476 39.67785535 4.781801 43.34770971 4.84269524 47.01765633 C4.86685021 48.42077847 4.89279867 49.82387087 4.92053413 51.2269268 C4.9589529 53.18562204 4.99051691 55.14444815 5.02172852 57.10327148 C5.04171402 58.22023911 5.06169952 59.33720673 5.08229065 60.48802185 C5 63 5 63 4 64 C2.09789198 64.2292627 0.18812403 64.39553167 -1.72265625 64.53515625 C-2.90150391 64.62216797 -4.08035156 64.70917969 -5.29492188 64.79882812 C-6.53822266 64.88583984 -7.78152344 64.97285156 -9.0625 65.0625 C-10.8868457 65.19881836 -10.8868457 65.19881836 -12.74804688 65.33789062 C-18.84806675 65.77809824 -24.88426411 66.11452689 -31 66 C-29.72289599 62.16868798 -28.19288632 61.54099858 -24.875 59.3125 C-13.02335228 50.86016209 -5.43048195 39.22875532 -2.5546875 24.83203125 C-1.36189509 16.59168368 -0.65552071 8.29816254 0 0 Z " fill="#0063C6" transform="translate(358,332)"/>
<path d="M0 0 C6.24100899 0.33433977 11.56445194 1.84809576 17 5 C17.33 5.66 17.66 6.32 18 7 C18.99 7 19.98 7 21 7 C21 15.58 21 24.16 21 33 C18.2775 33.99 15.555 34.98 12.75 36 C11.89889648 36.31324219 11.04779297 36.62648437 10.17089844 36.94921875 C9.4905957 37.19285156 8.81029297 37.43648437 8.109375 37.6875 C7.41811523 37.93886719 6.72685547 38.19023438 6.01464844 38.44921875 C4 39 4 39 0 39 C-0.16722525 33.60670134 -0.32782368 28.21326249 -0.48217773 22.81958008 C-0.53567534 20.9832625 -0.59101046 19.14699753 -0.64819336 17.31079102 C-0.72988864 14.67736153 -0.80505738 12.04381595 -0.87890625 9.41015625 C-0.90594131 8.58411392 -0.93297638 7.75807159 -0.96083069 6.90699768 C-1.01283011 4.9386419 -1.01187837 2.96900669 -1 1 C-0.67 0.67 -0.34 0.34 0 0 Z " fill="#0069D6" transform="translate(138,53)"/>
<path d="M0 0 C5.47695632 0 8.54719794 0.74776604 13.3125 2.9375 C14.26092773 3.35418945 14.26092773 3.35418945 15.22851562 3.77929688 C19.82287645 5.82287645 19.82287645 5.82287645 21 7 C21.08737645 8.85369611 21.10698153 10.71067541 21.09765625 12.56640625 C21.09443359 13.69111328 21.09121094 14.81582031 21.08789062 15.97460938 C21.07951172 17.15861328 21.07113281 18.34261719 21.0625 19.5625 C21.05798828 20.75037109 21.05347656 21.93824219 21.04882812 23.16210938 C21.03699675 26.10812226 21.02051287 29.05403681 21 32 C21.66 32.33 22.32 32.66 23 33 C21.59102187 33.6421449 20.17205307 34.2623545 18.75 34.875 C17.96109375 35.22304687 17.1721875 35.57109375 16.359375 35.9296875 C11.38468005 37.51464845 6.15004297 38.1416595 1 39 C0.67 26.13 0.34 13.26 0 0 Z " fill="#0068D3" transform="translate(53,84)"/>
<path d="M0 0 C0 0.33 0 0.66 0 1 C-1.65 1 -3.3 1 -5 1 C-5 13.21 -5 25.42 -5 38 C-9.00939229 37.33176795 -12.67854482 36.6287921 -16.5625 35.5625 C-17.47128906 35.31628906 -18.38007813 35.07007813 -19.31640625 34.81640625 C-21.94959865 34.01533316 -24.46146291 33.06040157 -27 32 C-26.01 31.505 -26.01 31.505 -25 31 C-25.16113281 30.3296875 -25.32226562 29.659375 -25.48828125 28.96875 C-26.09624794 25.44161501 -26.16960566 22.07886725 -26.1875 18.5 C-26.20876953 16.56640625 -26.20876953 16.56640625 -26.23046875 14.59375 C-25.85122592 8.68013305 -25.85122592 8.68013305 -24 6 C-21.02706436 4.31719155 -17.91284969 3.22809357 -14.6875 2.125 C-13.83220703 1.8053125 -12.97691406 1.485625 -12.09570312 1.15625 C-4.35988407 -1.6001224 -4.35988407 -1.6001224 0 0 Z " fill="#002552" transform="translate(428,84)"/>
<path d="M0 0 C6.6 0 13.2 0 20 0 C19.5234122 3.41704459 19.04383737 6.83362408 18.5625 10.25 C18.42779297 11.21808594 18.29308594 12.18617188 18.15429688 13.18359375 C18.02216797 14.11816406 17.89003906 15.05273438 17.75390625 16.015625 C17.63345947 16.87446289 17.5130127 17.73330078 17.38891602 18.61816406 C17.03808031 20.76678497 16.52801835 22.88792658 16 25 C9.73 25 3.46 25 -3 25 C-3 16 -3 16 -2.34375 12.5 C-2.22193359 11.8296875 -2.10011719 11.159375 -1.97460938 10.46875 C-1.81798828 9.6540625 -1.66136719 8.839375 -1.5 8 C-1.005 5.36 -0.51 2.72 0 0 Z " fill="#006BDA" transform="translate(232,304)"/>
<path d="M0 0 C0 0.66 0 1.32 0 2 C0.99 2.495 0.99 2.495 2 3 C1.23558594 2.97679688 0.47117187 2.95359375 -0.31640625 2.9296875 C-19.22617386 2.61111139 -37.08982189 5.52754812 -51.31005859 18.83837891 C-60.26939619 27.62150708 -64.53268651 36.58423192 -67.921875 48.4609375 C-69 52 -69 52 -70.04150391 53.66357422 C-71.54530262 57.32922723 -71.35958036 60.9956457 -71.4140625 64.921875 C-71.43342865 65.78186096 -71.4527948 66.64184692 -71.4727478 67.52789307 C-71.53241814 70.26849521 -71.5788786 73.00913964 -71.625 75.75 C-71.66319134 77.61069517 -71.70224375 79.47137288 -71.7421875 81.33203125 C-71.83810935 85.88787864 -71.92218668 90.44380879 -72 95 C-72.33 95 -72.66 95 -73 95 C-73.07495628 89.39903588 -73.1289776 83.79837289 -73.16479492 78.19702148 C-73.17974885 76.29723007 -73.20011943 74.39747236 -73.22631836 72.49780273 C-73.49930189 52.1739113 -71.1876653 34.54780917 -56.30859375 19.2421875 C-55.54675781 18.50226563 -54.78492188 17.76234375 -54 17 C-53.28972656 16.28070313 -52.57945312 15.56140625 -51.84765625 14.8203125 C-46.2257144 9.43219463 -40.16364358 5.99417915 -33 3 C-32.195625 2.65839844 -31.39125 2.31679687 -30.5625 1.96484375 C-20.89283741 -1.36685089 -10.0841721 -0.26021087 0 0 Z " fill="#02529C" transform="translate(250,119)"/>
<path d="M0 0 C0 23.1 0 46.2 0 70 C-2.64 70 -5.28 70 -8 70 C-7.01 69.01 -7.01 69.01 -6 68 C-5.01 68 -4.02 68 -3 68 C-3 46.55 -3 25.1 -3 3 C-18.25008083 3.90744712 -18.25008083 3.90744712 -31.1875 9.125 C-31.86490234 9.49753906 -32.54230469 9.87007813 -33.24023438 10.25390625 C-34.84304155 11.14056554 -36.4245499 12.06559511 -38 13 C-38 12.34 -38 11.68 -38 11 C-37.32453125 10.68546875 -36.6490625 10.3709375 -35.953125 10.046875 C-31.2223144 7.77717974 -27.66128923 5.79689253 -24 2 C-20.05003213 0.95379229 -16.06650216 0.71356642 -12 0.4375 C-10.80375 0.35371094 -9.6075 0.26992188 -8.375 0.18359375 C-5.58678497 0.03192002 -2.79233737 0 0 0 Z " fill="#0469C4" transform="translate(306,418)"/>
<path d="M0 0 C0.99 0.33 1.98 0.66 3 1 C3 35.65 3 70.3 3 106 C2.34 106 1.68 106 1 106 C0.67 107.32 0.34 108.64 0 110 C0 73.7 0 37.4 0 0 Z " fill="#0068C4" transform="translate(336,244)"/>
<path d="M0 0 C0.33 0 0.66 0 1 0 C1 17.82 1 35.64 1 54 C5.62 54 10.24 54 15 54 C19.29 54.33 23.58 54.66 28 55 C28 38.5 28 22 28 5 C27.01 4.67 26.02 4.34 25 4 C26.65 4 28.3 4 30 4 C30 21.49 30 38.98 30 57 C6 56 6 56 0 55 C0 36.85 0 18.7 0 0 Z " fill="#027CEA" transform="translate(415,262)"/>
<path d="M0 0 C2.31 0 4.62 0 7 0 C7 18.15 7 36.3 7 55 C-2.4231854 55.58894909 -11.60104734 56.14854675 -21 56.0625 C-21.97710937 56.05798828 -22.95421875 56.05347656 -23.9609375 56.04882812 C-26.30736482 56.03732603 -28.65364286 56.02108866 -31 56 C-31 55.67 -31 55.34 -31 55 C-23.52110029 53.87627643 -16.05178934 53.67185077 -8.5 53.4375 C-4.045 53.293125 0.41 53.14875 5 53 C5 35.84 5 18.68 5 1 C3.35 1 1.7 1 0 1 C0 0.67 0 0.34 0 0 Z " fill="#037BE8" transform="translate(438,336)"/>
<path d="M0 0 C0.33 0 0.66 0 1 0 C1.53191207 13.41791101 -4.60039005 24.96375108 -13 35 C-15.88601969 37.89038583 -18.81859864 40.42457985 -22 43 C-17.71 43.33 -13.42 43.66 -9 44 C-9 44.33 -9 44.66 -9 45 C-13.62 45 -18.24 45 -23 45 C-23 45.66 -23 46.32 -23 47 C-25.64 47 -28.28 47 -31 47 C-29.72289599 43.16868798 -28.19288632 42.54099858 -24.875 40.3125 C-15.20996891 33.41960961 -10.25536632 25.47878513 -5 15 C-4.34 15 -3.68 15 -3 15 C-2.86722656 14.16855469 -2.73445313 13.33710938 -2.59765625 12.48046875 C-2.42105469 11.39378906 -2.24445313 10.30710937 -2.0625 9.1875 C-1.80146484 7.56908203 -1.80146484 7.56908203 -1.53515625 5.91796875 C-1 3 -1 3 0 0 Z " fill="#025EB1" transform="translate(358,351)"/>
<path d="M0 0 C4.29 0.33 8.58 0.66 13 1 C13 1.33 13 1.66 13 2 C9.7 2.33 6.4 2.66 3 3 C2.67 20.82 2.34 38.64 2 57 C8.93 57.33 15.86 57.66 23 58 C25.97 58.33 28.94 58.66 32 59 C31.67 41.18 31.34 23.36 31 5 C31.66 5 32.32 5 33 5 C33 23.15 33 41.3 33 60 C22.31252031 60 11.63933765 59.01327025 1 58 C0.505 29.29 0.505 29.29 0 0 Z " fill="#094687" transform="translate(413,260)"/>
<path d="M0 0 C17 0 17 0 24 1 C24 1.33 24 1.66 24 2 C16.74 2 9.48 2 2 2 C2 20.81 2 39.62 2 59 C4.31 59 6.62 59 9 59 C9 59.33 9 59.66 9 60 C6.03 60 3.06 60 0 60 C0 40.2 0 20.4 0 0 Z " fill="#027DEA" transform="translate(378,334)"/>
<path d="M0 0 C0 0.33 0 0.66 0 1 C-2.64 1 -5.28 1 -8 1 C-8.33 0.34 -8.66 -0.32 -9 -1 C-9 26.39 -9 53.78 -9 82 C-6.03 82 -3.06 82 0 82 C0 82.33 0 82.66 0 83 C-7.49719609 84.14364008 -14.46818582 83.75667376 -22 83 C-19.57869669 80.57869669 -18.19888623 80.47159496 -14.875 79.875 C-13.96492187 79.70742187 -13.05484375 79.53984375 -12.1171875 79.3671875 C-11.41851562 79.24601562 -10.71984375 79.12484375 -10 79 C-10.10753265 69.29022739 -10.22017247 59.58052877 -10.33933926 49.87089157 C-10.39451204 45.36235729 -10.44792301 40.85381646 -10.49731445 36.34521484 C-10.54504126 31.99447271 -10.59738706 27.64380847 -10.65294075 23.29315948 C-10.67332663 21.63299752 -10.69204588 19.97281424 -10.70907402 18.31261444 C-10.73320153 15.98795362 -10.76324451 13.6634391 -10.79467773 11.33886719 C-10.8004332 10.6519429 -10.80618866 9.96501862 -10.81211853 9.25727844 C-10.85613508 4.53664485 -10.85613508 4.53664485 -12 0 C-12.66 -0.33 -13.32 -0.66 -14 -1 C-8.84549584 -2.71816805 -4.88857725 -2.30050694 0 0 Z " fill="#00437F" transform="translate(249,17)"/>
<path d="M0 0 C2.97 0 5.94 0 9 0 C8.67 0.99 8.34 1.98 8 3 C6.35 3 4.7 3 3 3 C2.67 22.14 2.34 41.28 2 61 C3.32 61.33 4.64 61.66 6 62 C4.02 62 2.04 62 0 62 C0 41.54 0 21.08 0 0 Z " fill="#0074DF" transform="translate(359,251)"/>
<path d="M0 0 C1.65 0 3.3 0 5 0 C5 7.92 5 15.84 5 24 C4.34 23.34 3.68 22.68 3 22 C1.87743029 27.60341521 1.67278683 33.1818301 1.4375 38.875 C1.39431641 39.84953125 1.35113281 40.8240625 1.30664062 41.828125 C1.20117726 44.21862802 1.09905825 46.60922444 1 49 C0.67 49 0.34 49 0 49 C0 32.83 0 16.66 0 0 Z " fill="#022A5A" transform="translate(115,332)"/>
<path d="M0 0 C6.6 0 13.2 0 20 0 C20 0.99 20 1.98 20 3 C14.06 3 8.12 3 2 3 C1.855625 5.0625 1.71125 7.125 1.5625 9.25 C1.30386953 12.94472103 1.04882391 16.43928688 0 20 C-0.66 20 -1.32 20 -2 20 C-2 21.32 -2 22.64 -2 24 C3.61 24 9.22 24 15 24 C15.33 23.01 15.66 22.02 16 21 C16 22.32 16 23.64 16 25 C9.73 25 3.46 25 -3 25 C-3 16 -3 16 -2.34375 12.5 C-2.22193359 11.8296875 -2.10011719 11.159375 -1.97460938 10.46875 C-1.81798828 9.6540625 -1.66136719 8.839375 -1.5 8 C-1.005 5.36 -0.51 2.72 0 0 Z " fill="#0359A4" transform="translate(232,304)"/>
<path d="M0 0 C0 14.52 0 29.04 0 44 C-1.485 43.505 -1.485 43.505 -3 43 C-2.67 29.47 -2.34 15.94 -2 2 C-7.94 2.495 -7.94 2.495 -14 3 C-16.24935257 3.05785372 -18.50006298 3.08928496 -20.75 3.0625 C-21.75546875 3.05347656 -22.7609375 3.04445313 -23.796875 3.03515625 C-24.52390625 3.02355469 -25.2509375 3.01195312 -26 3 C-22.60396523 0.73597682 -20.95095223 0.63331516 -16.9375 0.375 C-15.87402344 0.30023438 -14.81054688 0.22546875 -13.71484375 0.1484375 C-9.14660687 -0.03409983 -4.57188234 0 0 0 Z " fill="#037CE9" transform="translate(445,408)"/>
<path d="M0 0 C0.66 0.33 1.32 0.66 2 1 C1.67 17.83 1.34 34.66 1 52 C3.64 52 6.28 52 9 52 C9 52.33 9 52.66 9 53 C4.05 53.495 4.05 53.495 -1 54 C-1.02464032 46.47029868 -1.04283141 38.94062061 -1.05493164 31.41088867 C-1.0599737 28.84708243 -1.06680714 26.28327909 -1.07543945 23.71948242 C-1.08751064 20.04344979 -1.09322942 16.36745502 -1.09765625 12.69140625 C-1.10281754 11.53725723 -1.10797882 10.38310822 -1.11329651 9.19398499 C-1.11337204 8.13296066 -1.11344757 7.07193634 -1.11352539 5.97875977 C-1.115746 5.03944107 -1.11796661 4.10012238 -1.12025452 3.13233948 C-1 1 -1 1 0 0 Z " fill="#002D61" transform="translate(34,193)"/>
<path d="M0 0 C0.33 0 0.66 0 1 0 C1.33 17.16 1.66 34.32 2 52 C-2.05938098 53.01484525 -4.80939783 52.95864507 -8.953125 52.66015625 C-9.61334656 52.61434921 -10.27356812 52.56854218 -10.95379639 52.52134705 C-13.05300177 52.37433556 -15.15144871 52.21854489 -17.25 52.0625 C-18.67704215 51.96100778 -20.10412527 51.86008988 -21.53125 51.75976562 C-25.0213326 51.51316176 -28.51078951 51.25868285 -32 51 C-32 50.67 -32 50.34 -32 50 C-21.77 50 -11.54 50 -1 50 C-0.67 33.5 -0.34 17 0 0 Z " fill="#0259A6" transform="translate(398,264)"/>
<path d="M0 0 C0.33 0 0.66 0 1 0 C1.02505615 1.30146973 1.0501123 2.60293945 1.07592773 3.94384766 C1.1703047 8.78573971 1.27045085 13.62749842 1.37231445 18.46923828 C1.41554894 20.56230544 1.45723185 22.65540526 1.49731445 24.74853516 C1.55529601 27.76214426 1.61890942 30.77559071 1.68359375 33.7890625 C1.70030624 34.72054108 1.71701874 35.65201965 1.73423767 36.61172485 C1.75418289 37.49218475 1.77412811 38.37264465 1.79467773 39.27978516 C1.81022202 40.04811676 1.8257663 40.81644836 1.84178162 41.60806274 C2.02816084 44.42573408 2.53576541 47.21459245 3 50 C7.29 50.33 11.58 50.66 16 51 C16 51.33 16 51.66 16 52 C19.96 52.33 23.92 52.66 28 53 C28 53.33 28 53.66 28 54 C24.9999376 54.02721831 22.00012744 54.04694378 19 54.0625 C18.16082031 54.07087891 17.32164062 54.07925781 16.45703125 54.08789062 C11.21370368 54.1082136 6.16815723 53.93379204 1 53 C-0.24177521 50.51644959 -0.12036681 48.86892378 -0.11352539 46.09130859 C-0.11344986 45.07040131 -0.11337433 44.04949402 -0.11329651 42.99765015 C-0.10813522 41.89240997 -0.10297394 40.7871698 -0.09765625 39.6484375 C-0.0962413 38.5192691 -0.09482635 37.39010071 -0.09336853 36.22671509 C-0.08775744 32.60945012 -0.07520303 28.99224636 -0.0625 25.375 C-0.05748643 22.92708423 -0.05292328 20.47916748 -0.04882812 18.03125 C-0.0377844 12.02081234 -0.02103544 6.01041054 0 0 Z " fill="#031A36" transform="translate(114,343)"/>
<path d="M0 0 C0.99 0 1.98 0 3 0 C3 9.9 3 19.8 3 30 C-7 33 -7 33 -10 32 C-10 31.34 -10 30.68 -10 30 C-6.7 29.67 -3.4 29.34 0 29 C0 19.43 0 9.86 0 0 Z " fill="#0268C8" transform="translate(397,433)"/>
<path d="M0 0 C0.66 0.33 1.32 0.66 2 1 C0.98046875 2.48828125 0.98046875 2.48828125 -1 4 C-3.64996326 4.2172101 -6.05076558 4.28351554 -8.6875 4.1875 C-9.38939453 4.17396484 -10.09128906 4.16042969 -10.81445312 4.14648438 C-12.54329829 4.11120182 -14.27174765 4.05739583 -16 4 C-16.13277344 5.10859375 -16.26554687 6.2171875 -16.40234375 7.359375 C-16.58059757 8.8229327 -16.75899028 10.28647349 -16.9375 11.75 C-17.02451172 12.47960937 -17.11152344 13.20921875 -17.20117188 13.9609375 C-17.62255612 17.39443878 -18.15935118 20.63740472 -19 24 C-12.73 24 -6.46 24 0 24 C0.66 25.32 1.32 26.64 2 28 C1.01 27.34 0.02 26.68 -1 26 C-3.22131423 25.6349209 -3.22131423 25.6349209 -5.66796875 25.5859375 C-6.56064453 25.54726563 -7.45332031 25.50859375 -8.37304688 25.46875 C-9.30181641 25.4378125 -10.23058594 25.406875 -11.1875 25.375 C-12.12787109 25.33632813 -13.06824219 25.29765625 -14.03710938 25.2578125 C-16.3578771 25.16356813 -18.67863748 25.07795975 -21 25 C-20.52765962 21.35324788 -20.04598994 17.70778929 -19.5625 14.0625 C-19.42779297 13.02158203 -19.29308594 11.98066406 -19.15429688 10.90820312 C-19.02216797 9.91884766 -18.89003906 8.92949219 -18.75390625 7.91015625 C-18.63345947 6.99371338 -18.5130127 6.07727051 -18.38891602 5.13305664 C-18 3 -18 3 -17 2 C-13.57529995 1.72962894 -10.15760696 1.55370342 -6.7265625 1.39453125 C-3.05812952 1.53841351 -3.05812952 1.53841351 0 0 Z " fill="#027BEA" transform="translate(286,303)"/>
<path d="M0 0 C7.92 0 15.84 0 24 0 C24 0.66 24 1.32 24 2 C25.31355469 1.98839844 26.62710937 1.97679687 27.98046875 1.96484375 C29.71614441 1.95546172 31.45182161 1.94636196 33.1875 1.9375 C34.05181641 1.92912109 34.91613281 1.92074219 35.80664062 1.91210938 C40.00286769 1.89603188 43.90936886 1.92440962 48 3 C48 3.33 48 3.66 48 4 C33.64668852 4.17991616 19.33838212 3.62175432 5 3 C5 2.67 5 2.34 5 2 C3.35 1.67 1.7 1.34 0 1 C0 0.67 0 0.34 0 0 Z " fill="#0165C3" transform="translate(395,334)"/>
<path d="M0 0 C0.33 0 0.66 0 1 0 C1.09895826 5.19606986 1.17150993 10.39158998 1.21972656 15.58837891 C1.2398285 17.35572872 1.26711472 19.12301213 1.30175781 20.89013672 C1.35034009 23.43213285 1.37298226 25.97324896 1.390625 28.515625 C1.41127014 29.30430969 1.43191528 30.09299438 1.45318604 30.90557861 C1.45462621 34.43524373 1.33152441 36.54785944 -0.78564453 39.43530273 C-2.8369174 40.88476336 -4.43410839 41.78905444 -6.8203125 42.51953125 C-7.87025391 42.8453418 -7.87025391 42.8453418 -8.94140625 43.17773438 C-9.66199219 43.38720703 -10.38257813 43.59667969 -11.125 43.8125 C-11.85332031 44.04130859 -12.58164063 44.27011719 -13.33203125 44.50585938 C-18.72722854 46.13638573 -18.72722854 46.13638573 -21 45 C-21 44.34 -21 43.68 -21 43 C-14.4 40.69 -7.8 38.38 -1 36 C-0.67 24.12 -0.34 12.24 0 0 Z " fill="#021C3A" transform="translate(181,41)"/>
<path d="M0 0 C0.99 0.495 0.99 0.495 2 1 C2 13.21 2 25.42 2 38 C3.98 38 5.96 38 8 38 C8 38.66 8 39.32 8 40 C5.36 40 2.72 40 0 40 C0 26.8 0 13.6 0 0 Z " fill="#0073E2" transform="translate(321,174)"/>
<path d="M0 0 C0.66 0.33 1.32 0.66 2 1 C-0.45570175 2.33838733 -2.91429916 3.67086232 -5.375 5 C-6.42300781 5.57234375 -6.42300781 5.57234375 -7.4921875 6.15625 C-12.7734375 9 -12.7734375 9 -15 9 C-15 27.48 -15 45.96 -15 65 C-15.33 65 -15.66 65 -16 65 C-16 47.18 -16 29.36 -16 11 C-16.99 10.67 -17.98 10.34 -19 10 C-19 9.34 -19 8.68 -19 8 C-18.46632812 7.84144531 -17.93265625 7.68289063 -17.3828125 7.51953125 C-11.94566811 5.81689607 -7.07006239 3.61562083 -2.06640625 0.890625 C-1.38449219 0.59671875 -0.70257813 0.3028125 0 0 Z " fill="#02366A" transform="translate(254,435)"/>
<path d="M0 0 C0.66 0.33 1.32 0.66 2 1 C2.07402368 6.65996416 2.12854173 12.31964811 2.16479492 17.97998047 C2.17990395 19.90646267 2.20039214 21.83291035 2.22631836 23.75927734 C2.26260925 26.52450057 2.27970479 29.28927004 2.29296875 32.0546875 C2.30845261 32.9193161 2.32393646 33.7839447 2.33988953 34.67477417 C2.34057617 37.10107422 2.34057617 37.10107422 2 41 C1.01 41.66 0.02 42.32 -1 43 C-1.99 42.67 -2.98 42.34 -4 42 C-3.01 41.34 -2.02 40.68 -1 40 C-0.66238965 36.95559724 -0.51082557 34.1051876 -0.48828125 31.0546875 C-0.47033005 30.1696756 -0.45237885 29.2846637 -0.43388367 28.37283325 C-0.37961015 25.54027096 -0.34583081 22.70787874 -0.3125 19.875 C-0.27934192 17.95700749 -0.24485369 16.03903747 -0.20898438 14.12109375 C-0.12387407 9.41418494 -0.05714463 4.70732806 0 0 Z " fill="#032D5F" transform="translate(182,38)"/>
<path d="M0 0 C1.2065625 0.0309375 1.2065625 0.0309375 2.4375 0.0625 C2.4375 0.7225 2.4375 1.3825 2.4375 2.0625 C1.1175 2.0625 -0.2025 2.0625 -1.5625 2.0625 C-1.5625 13.9425 -1.5625 25.8225 -1.5625 38.0625 C-2.5525 38.5575 -2.5525 38.5575 -3.5625 39.0625 C-3.58714849 33.66903012 -3.60533531 28.27559275 -3.61743164 22.88208008 C-3.62247231 21.04581125 -3.62930477 19.20954646 -3.63793945 17.37329102 C-3.65001672 14.73973599 -3.65573081 12.10623384 -3.66015625 9.47265625 C-3.66531754 8.64661392 -3.67047882 7.82057159 -3.67579651 6.96949768 C-3.67599205 5.00013632 -3.62454152 3.03088386 -3.5625 1.0625 C-2.5625 0.0625 -2.5625 0.0625 0 0 Z " fill="#0072E4" transform="translate(343.5625,53.9375)"/>
<path d="M0 0 C0.66 0 1.32 0 2 0 C2.02929977 3.35414799 2.0468989 6.70826253 2.0625 10.0625 C2.07087891 11.00544922 2.07925781 11.94839844 2.08789062 12.91992188 C2.10581103 18.0630768 1.89259611 22.93258427 1 28 C0.34 28 -0.32 28 -1 28 C-1 25.69 -1 23.38 -1 21 C-2.485 26.94 -2.485 26.94 -4 33 C-4.9468789 29.21248438 -5.00538891 27.92547917 -4.2578125 24.296875 C-4.07863281 23.39839844 -3.89945312 22.49992187 -3.71484375 21.57421875 C-3.52019531 20.64222656 -3.32554687 19.71023438 -3.125 18.75 C-1.85190442 12.5074417 -0.69895289 6.33519006 0 0 Z " fill="#0354A3" transform="translate(359,333)"/>
<path d="M0 0 C-0.90363281 0.32613281 -1.80726562 0.65226562 -2.73828125 0.98828125 C-3.91777344 1.42527344 -5.09726562 1.86226563 -6.3125 2.3125 C-7.48425781 2.74175781 -8.65601563 3.17101562 -9.86328125 3.61328125 C-12.91306284 4.73217466 -12.91306284 4.73217466 -14.44921875 6.46875 C-16.96892518 8.95672209 -20.2496176 9.93378107 -23.5 11.1875 C-24.17675781 11.46013672 -24.85351562 11.73277344 -25.55078125 12.01367188 C-28.50965239 13.17796141 -30.79271544 14 -34 14 C-34 13.01 -34 12.02 -34 11 C-29.80656243 9.25831545 -25.60742644 7.53149354 -21.40234375 5.81811523 C-19.97294927 5.23328925 -18.54519052 4.64444849 -17.11914062 4.05151367 C-15.06798327 3.19948348 -13.01135976 2.36210648 -10.953125 1.52734375 C-10.31755676 1.25969711 -9.68198853 0.99205048 -9.02716064 0.71629333 C-5.67598179 -0.62527447 -3.42332273 -1.43884198 0 0 Z " fill="#011F42" transform="translate(52,85)"/>
<path d="M0 0 C-5.01678602 2.73689933 -10.4920862 3.80727396 -16 5.1875 C-17.6396875 5.61579102 -17.6396875 5.61579102 -19.3125 6.05273438 C-20.8903125 6.45008789 -20.8903125 6.45008789 -22.5 6.85546875 C-23.4590625 7.09934326 -24.418125 7.34321777 -25.40625 7.59448242 C-28.00396755 8.0006203 -29.54013671 7.84884139 -32 7 C-32 6.34 -32 5.68 -32 5 C-31.38479492 4.85377197 -30.76958984 4.70754395 -30.13574219 4.55688477 C-27.34043814 3.89232785 -24.54521827 3.22741758 -21.75 2.5625 C-20.29787109 2.21735352 -20.29787109 2.21735352 -18.81640625 1.86523438 C-17.88183594 1.64287109 -16.94726562 1.42050781 -15.984375 1.19140625 C-15.12553711 0.98717041 -14.26669922 0.78293457 -13.38183594 0.57250977 C-11.88739207 0.21329791 -10.39914711 -0.1740835 -8.92285156 -0.60180664 C-5.86701273 -1.23462446 -3.04066808 -0.52626948 0 0 Z " fill="#0163C0" transform="translate(356,474)"/>
<path d="M0 0 C4.29 0.33 8.58 0.66 13 1 C13 1.33 13 1.66 13 2 C9.7 2.33 6.4 2.66 3 3 C2.67 21.15 2.34 39.3 2 58 C1.67 58 1.34 58 1 58 C0.505 29.29 0.505 29.29 0 0 Z " fill="#003159" transform="translate(413,260)"/>
<path d="M0 0 C0 0.33 0 0.66 0 1 C-2.64 1 -5.28 1 -8 1 C-8.33 0.34 -8.66 -0.32 -9 -1 C-9 13.85 -9 28.7 -9 44 C-9.33 44 -9.66 44 -10 44 C-10.03758423 42.21384277 -10.03758423 42.21384277 -10.07592773 40.39160156 C-10.17014647 35.97092042 -10.27033189 31.5503911 -10.37231445 27.12988281 C-10.41560857 25.21715854 -10.45728756 23.304397 -10.49731445 21.39160156 C-10.5551508 18.64116182 -10.61880676 15.89090872 -10.68359375 13.140625 C-10.70030624 12.28631897 -10.71701874 11.43201294 -10.73423767 10.55181885 C-10.75418289 9.75129089 -10.77412811 8.95076294 -10.79467773 8.12597656 C-10.81799416 7.07340668 -10.81799416 7.07340668 -10.84178162 5.99957275 C-11.00986278 3.87535365 -11.31487118 2.01971173 -12 0 C-12.66 -0.33 -13.32 -0.66 -14 -1 C-8.84549584 -2.71816805 -4.88857725 -2.30050694 0 0 Z " fill="#004482" transform="translate(249,17)"/>
<path d="M0 0 C4.875 0.875 4.875 0.875 6 2 C6.16029688 4.95529504 6.25957328 7.88982457 6.31640625 10.84765625 C6.33718735 11.7340831 6.35796844 12.62050995 6.37937927 13.53379822 C6.444974 16.376617 6.50380552 19.21953117 6.5625 22.0625 C6.6056758 23.98503606 6.64928978 25.90756234 6.69335938 27.83007812 C6.80066543 32.55328668 6.90190451 37.27659153 7 42 C9.97 42.99 12.94 43.98 16 45 C14.68 45.66 13.36 46.32 12 47 C11.67 46.34 11.34 45.68 11 45 C9.02 45.495 9.02 45.495 7 46 C4.970332 42.955498 4.75143699 42.39723672 4.77294922 38.98754883 C4.77310028 38.18694534 4.77325134 37.38634186 4.77340698 36.56147766 C4.78372955 35.70201035 4.79405212 34.84254303 4.8046875 33.95703125 C4.80893234 32.63163582 4.80893234 32.63163582 4.81326294 31.27946472 C4.82445903 28.45700546 4.84956249 25.63486338 4.875 22.8125 C4.88503054 20.89909312 4.89415626 18.98568127 4.90234375 17.07226562 C4.92439649 12.38138818 4.95892238 7.69074787 5 3 C4.01 3.33 3.02 3.66 2 4 C1.34 2.68 0.68 1.36 0 0 Z " fill="#01468A" transform="translate(379,67)"/>
<path d="M0 0 C0.66 0.33 1.32 0.66 2 1 C0.54462432 1.83848804 -0.91440373 2.67063934 -2.375 3.5 C-3.18710937 3.9640625 -3.99921875 4.428125 -4.8359375 4.90625 C-7 6 -7 6 -9 6 C-9.33 6.99 -9.66 7.98 -10 9 C-11.85766602 10.25854492 -11.85766602 10.25854492 -14.25390625 11.48046875 C-15.10791016 11.92197266 -15.96191406 12.36347656 -16.84179688 12.81835938 C-17.73962891 13.27017578 -18.63746094 13.72199219 -19.5625 14.1875 C-20.46419922 14.65091797 -21.36589844 15.11433594 -22.29492188 15.59179688 C-24.52563676 16.73666113 -26.7606047 17.87223559 -29 19 C-29.33 18.34 -29.66 17.68 -30 17 C-29.20335937 16.63648438 -29.20335937 16.63648438 -28.390625 16.265625 C-27.68421875 15.93046875 -26.9778125 15.5953125 -26.25 15.25 C-25.55390625 14.92515625 -24.8578125 14.6003125 -24.140625 14.265625 C-21.92192497 13.09258402 -21.92192497 13.09258402 -20.3046875 11.16015625 C-16.92516717 7.99257194 -13.00984977 6.215732 -8.875 4.1875 C-8.05128906 3.76791016 -7.22757812 3.34832031 -6.37890625 2.91601562 C-5.59128906 2.52478516 -4.80367188 2.13355469 -3.9921875 1.73046875 C-3.27401855 1.37364014 -2.55584961 1.01681152 -1.81591797 0.64916992 C-1.21666504 0.43494385 -0.61741211 0.22071777 0 0 Z " fill="#0456A1" transform="translate(277,423)"/>
<path d="M0 0 C4.95 0 9.9 0 15 0 C16.23608129 2.47216257 15.91510446 3.44220669 15.44140625 6.1328125 C15.30283203 6.93847656 15.16425781 7.74414062 15.02148438 8.57421875 C14.79428711 9.83685547 14.79428711 9.83685547 14.5625 11.125 C14.41490234 11.97449219 14.26730469 12.82398438 14.11523438 13.69921875 C13.74928158 15.80049611 13.37538532 17.90038721 13 20 C12.34 19.67 11.68 19.34 11 19 C10.87963336 13.22240116 11.1679418 7.72040011 12 2 C8.04 1.67 4.08 1.34 0 1 C0 0.67 0 0.34 0 0 Z " fill="#0159A8" transform="translate(194,346)"/>
<path d="M0 0 C0.33 0 0.66 0 1 0 C1.33 13.53 1.66 27.06 2 41 C-1.3 41 -4.6 41 -8 41 C-4 39 -4 39 0 39 C0 26.13 0 13.26 0 0 Z " fill="#0077E4" transform="translate(360,354)"/>
<path d="M0 0 C0.78503906 0.33773437 1.57007813 0.67546875 2.37890625 1.0234375 C7.8651887 3.35258318 13.21387072 5.55346768 19 7 C19 7.99 19 8.98 19 10 C3.96875 7.96875 3.96875 7.96875 0 4 C0 2.68 0 1.36 0 0 Z " fill="#05458A" transform="translate(404,112)"/>
<path d="M0 0 C1.32 0.33 2.64 0.66 4 1 C3.01 1 2.02 1 1 1 C1.33 1.66 1.66 2.32 2 3 C2.08683445 5.77160626 2.1155579 8.51774765 2.09765625 11.2890625 C2.0962413 12.10748627 2.09482635 12.92591003 2.09336853 13.76913452 C2.0877629 16.38779325 2.07520948 19.00636704 2.0625 21.625 C2.05748572 23.39843627 2.05292269 25.17187387 2.04882812 26.9453125 C2.03779164 31.29690782 2.02052325 35.6484395 2 40 C1.67 40 1.34 40 1 40 C1 28.78 1 17.56 1 6 C0.34 6 -0.32 6 -1 6 C-1 5.34 -1 4.68 -1 4 C-2.32 3.67 -3.64 3.34 -5 3 C-3.35 2.67 -1.7 2.34 0 2 C0 1.34 0 0.68 0 0 Z " fill="#002858" transform="translate(52,83)"/>
<path d="M0 0 C0.33 0 0.66 0 1 0 C1.02707139 2.24993359 1.04642829 4.49996095 1.0625 6.75 C1.07410156 8.00296875 1.08570313 9.2559375 1.09765625 10.546875 C1 14 1 14 0 18 C-7.59 18 -15.18 18 -23 18 C-23 17.67 -23 17.34 -23 17 C-15.74 17 -8.48 17 -1 17 C-1.33 15.02 -1.66 13.04 -2 11 C-1.66015625 8.0078125 -1.66015625 8.0078125 -1.0625 5.125 C-0.86785156 4.15820312 -0.67320312 3.19140625 -0.47265625 2.1953125 C-0.31667969 1.47085937 -0.16070312 0.74640625 0 0 Z " fill="#005DB3" transform="translate(219,270)"/>
<path d="M0 0 C0.66 0 1.32 0 2 0 C1.91621094 1.18078125 1.83242187 2.3615625 1.74609375 3.578125 C1.64290116 5.13539497 1.5400547 6.6926879 1.4375 8.25 C1.35338867 9.41595703 1.35338867 9.41595703 1.26757812 10.60546875 C1.21923828 11.35957031 1.17089844 12.11367188 1.12109375 12.890625 C1.0739624 13.58188477 1.02683105 14.27314453 0.97827148 14.98535156 C1.00146864 17.13617072 1.4004236 18.94084871 2 21 C0.68 20.34 -0.64 19.68 -2 19 C-2.21432579 12.35590042 -1.51233701 6.46794133 0 0 Z " fill="#0265C2" transform="translate(242,351)"/>
<path d="M0 0 C1.98 0 3.96 0 6 0 C6.66 0.66 7.32 1.32 8 2 C6.02 2 4.04 2 2 2 C2.33 14.21 2.66 26.42 3 39 C2.34 39 1.68 39 1 39 C0.67 26.13 0.34 13.26 0 0 Z " fill="#0068D6" transform="translate(53,84)"/>
<path d="M0 0 C0.33 0 0.66 0 1 0 C1.02736707 1.39572052 1.04655989 2.79160221 1.0625 4.1875 C1.07410156 4.96480469 1.08570313 5.74210937 1.09765625 6.54296875 C0.99518573 9.12112711 0.56697553 11.48655731 0 14 C0.98742187 13.97679687 1.97484375 13.95359375 2.9921875 13.9296875 C4.27351563 13.91164063 5.55484375 13.89359375 6.875 13.875 C8.78925781 13.84019531 8.78925781 13.84019531 10.7421875 13.8046875 C14 14 14 14 16 16 C16.26991906 18.68839385 16.08737357 21.29141936 16 24 C14.5268006 21.25002779 13.77595125 19.10380501 13 16 C8.05 15.67 3.1 15.34 -2 15 C-2 8.97206487 -1.55700564 5.5468326 0 0 Z " fill="#044B89" transform="translate(272,273)"/>
<path d="M0 0 C1.65 0.33 3.3 0.66 5 1 C5.22547184 5.43680453 5.42745053 9.87437147 5.625 14.3125 C5.68945312 15.57513672 5.75390625 16.83777344 5.8203125 18.13867188 C5.871875 19.34716797 5.9234375 20.55566406 5.9765625 21.80078125 C6.02893066 22.91622314 6.08129883 24.03166504 6.13525391 25.1809082 C6 28 6 28 4 31 C2.02 30.67 0.04 30.34 -2 30 C1.75 28 1.75 28 4 28 C4 19.42 4 10.84 4 2 C2.68 2.33 1.36 2.66 0 3 C0 2.01 0 1.02 0 0 Z " fill="#013F82" transform="translate(155,58)"/>
<path d="M0 0 C-3.63622792 2.05001625 -7.49571404 3.11061921 -11.5 4.1875 C-12.49580078 4.47270508 -12.49580078 4.47270508 -13.51171875 4.76367188 C-16.97530326 5.70042976 -19.59580736 6.36341389 -23 5 C-22.67 4.34 -22.34 3.68 -22 3 C-19.92578125 2.4375 -19.92578125 2.4375 -17.3125 2 C-14.27236638 1.4594357 -11.66410707 0.87726989 -8.75 -0.1875 C-5.47863731 -1.15403898 -3.28508615 -0.78216337 0 0 Z " fill="#0261BC" transform="translate(283,493)"/>
<path d="M0 0 C0.33 0.33 0.66 0.66 1 1 C2.51469448 1.23192865 4.03754562 1.41215238 5.5625 1.5625 C6.38878906 1.64628906 7.21507812 1.73007813 8.06640625 1.81640625 C8.70449219 1.87699219 9.34257812 1.93757812 10 2 C10.33 2.99 10.66 3.98 11 5 C4.2142064 4.45136137 -2.35009036 3.45732062 -9 2 C-5.55892734 -0.29404844 -4.03160191 -0.26293056 0 0 Z " fill="#0260B9" transform="translate(399,236)"/>
<path d="M0 0 C6.08121727 0.9928518 8.77414284 3.35172227 12.8125 7.9296875 C14 10 14 10 13.6875 12.2578125 C13.3471875 13.12019531 13.3471875 13.12019531 13 14 C12.39671875 13.32453125 11.7934375 12.6490625 11.171875 11.953125 C9.97304688 10.61507812 9.97304688 10.61507812 8.75 9.25 C7.96109375 8.36828125 7.1721875 7.4865625 6.359375 6.578125 C4.29407328 4.32133835 2.18264936 2.14260074 0 0 Z " fill="#0355A1" transform="translate(289,117)"/>
<path d="M0 0 C5.94 0 11.88 0 18 0 C19.41687119 4.25061356 18.19320039 6.71851625 17 11 C16.67 11 16.34 11 16 11 C16 8.03 16 5.06 16 2 C13.70890403 1.91924335 11.41700733 1.86092269 9.125 1.8125 C7.84882813 1.77769531 6.57265625 1.74289062 5.2578125 1.70703125 C3.64519531 1.85205078 3.64519531 1.85205078 2 2 C1.01 3.485 1.01 3.485 0 5 C0 3.35 0 1.7 0 0 Z " fill="#0457A1" transform="translate(257,262)"/>
<path d="M0 0 C0 0.33 0 0.66 0 1 C-1.2065625 1.185625 -1.2065625 1.185625 -2.4375 1.375 C-3.283125 1.58125 -4.12875 1.7875 -5 2 C-5.33 2.66 -5.66 3.32 -6 4 C-9.3 4 -12.6 4 -16 4 C-16.33 4.66 -16.66 5.32 -17 6 C-18.9375 5.625 -18.9375 5.625 -21 5 C-21.33 4.34 -21.66 3.68 -22 3 C-19.45953542 2.49311395 -16.91791124 1.99433126 -14.375 1.5 C-13.66214844 1.35691406 -12.94929688 1.21382812 -12.21484375 1.06640625 C-8.07855065 0.26950574 -4.23566321 -0.16034056 0 0 Z " fill="#011E41" transform="translate(105,253)"/>
<path d="M0 0 C-3 2 -3 2 -5 3 C-5 2.34 -5 1.68 -5 1 C-5.66 1.66 -6.32 2.32 -7 3 C-7 3.33 -7 3.66 -7 4 C-8.60226955 4.22245393 -10.20696767 4.42746669 -11.8125 4.625 C-12.70582031 4.74101562 -13.59914063 4.85703125 -14.51953125 4.9765625 C-17 5 -17 5 -20 3 C-17.41932437 2.30081695 -14.83627153 1.61538951 -12.25 0.9375 C-11.15558594 0.63875977 -11.15558594 0.63875977 -10.0390625 0.33398438 C-6.28968956 -0.63744407 -3.69725762 -1.15449387 0 0 Z " fill="#012044" transform="translate(61,187)"/>
<path d="M0 0 C-1.32 0.33 -2.64 0.66 -4 1 C-4 1.99 -4 2.98 -4 4 C-5.72672034 4.36590746 -7.45653655 4.71722195 -9.1875 5.0625 C-10.15042969 5.25972656 -11.11335938 5.45695313 -12.10546875 5.66015625 C-15.03610862 6.00423947 -17.16307068 5.74164697 -20 5 C-16.93138727 3.33933899 -13.92435277 2.29822725 -10.5625 1.375 C-9.63566406 1.11460937 -8.70882812 0.85421875 -7.75390625 0.5859375 C-5.07608341 0.01618796 -2.72741575 -0.10889863 0 0 Z " fill="#011E40" transform="translate(96,177)"/>
<path d="M0 0 C-3.08549348 1.66645757 -6.12675325 2.73761596 -9.5 3.6875 C-10.4384375 3.95949219 -11.376875 4.23148437 -12.34375 4.51171875 C-15.00766466 5.00140894 -16.47611372 4.88693174 -19 4 C-18 2 -18 2 -15.48828125 1.11328125 C-14.44027344 0.84902344 -13.39226562 0.58476562 -12.3125 0.3125 C-10.75982422 -0.09548828 -10.75982422 -0.09548828 -9.17578125 -0.51171875 C-5.81658714 -1.02820001 -3.29855253 -0.73685806 0 0 Z " fill="#0158AD" transform="translate(260,499)"/>
<path d="M0 0 C0.66 0 1.32 0 2 0 C5.82735898 5.90506815 7.64317031 9.92512658 7 17 C5.33252648 14.49878973 4.18069161 12.29746143 3 9.5625 C1.74388041 6.66263015 0.4364996 3.8152827 -1 1 C-0.67 0.67 -0.34 0.34 0 0 Z " fill="#04549F" transform="translate(272,155)"/>
<path d="M0 0 C0.33 0 0.66 0 1 0 C0.85761163 2.04190981 0.71092972 4.08352045 0.5625 6.125 C0.48128906 7.26195312 0.40007812 8.39890625 0.31640625 9.5703125 C0.02269035 12.7540478 -0.43124313 15.85510907 -1 19 C-1.66 18.67 -2.32 18.34 -3 18 C-3.11065148 12.57807726 -3.09006648 7.34132574 -2 2 C-1.34 1.34 -0.68 0.68 0 0 Z " fill="#0160BA" transform="translate(256,267)"/>
<path d="M0 0 C0.99 0.495 0.99 0.495 2 1 C2 1.66 2 2.32 2 3 C2.515625 3.226875 3.03125 3.45375 3.5625 3.6875 C6.90966116 5.48981755 10.03890492 7.61282504 13 10 C13 10.33 13 10.66 13 11 C9.95430707 11.27736608 8.39597714 11.24601721 5.76171875 9.609375 C5.07722656 8.99578125 4.39273438 8.3821875 3.6875 7.75 C2.99011719 7.14671875 2.29273438 6.5434375 1.57421875 5.921875 C0 4 0 4 0 0 Z " fill="#042348" transform="translate(134,383)"/>
<path d="M0 0 C4.2026393 2.63886654 7.56638098 5.36440339 11 9 C10.67 9.66 10.34 10.32 10 11 C7.00779732 9.63629701 4.70973471 8.05091917 2.25 5.875 C1.63640625 5.33617187 1.0228125 4.79734375 0.390625 4.2421875 C-0.06828125 3.83226562 -0.5271875 3.42234375 -1 3 C-0.67 2.01 -0.34 1.02 0 0 Z " fill="#045BAA" transform="translate(275,130)"/>
<path d="M0 0 C-0.33 0.33 -0.66 0.66 -1 1 C2.63 1.33 6.26 1.66 10 2 C10 2.33 10 2.66 10 3 C2.50280391 4.14364008 -4.46818582 3.75667376 -12 3 C-9.84267191 0.84267191 -8.88177557 0.51705175 -6 -0.1875 C-5.29875 -0.36667969 -4.5975 -0.54585938 -3.875 -0.73046875 C-2 -1 -2 -1 0 0 Z " fill="#01386E" transform="translate(239,97)"/>
<path d="M0 0 C-1.11375 0.45375 -2.2275 0.9075 -3.375 1.375 C-6.96199008 2.72465986 -6.96199008 2.72465986 -9 5 C-9.33 4.67 -9.66 4.34 -10 4 C-10.4125 4.474375 -10.825 4.94875 -11.25 5.4375 C-13.182185 7.16266518 -14.48192275 7.56584875 -17 8 C-17 7.34 -17 6.68 -17 6 C-17.66 5.67 -18.32 5.34 -19 5 C-16.39985473 3.96772138 -13.79573631 2.94894848 -11.1875 1.9375 C-10.44951172 1.64294922 -9.71152344 1.34839844 -8.95117188 1.04492188 C-3.33984375 -1.11328125 -3.33984375 -1.11328125 0 0 Z " fill="#011D3E" transform="translate(125,58)"/>
<path d="M0 0 C4.9723422 1.49170266 9.41845739 3.60457417 14 6 C14 6.99 14 7.98 14 9 C8.52067211 7.45454854 3.88570819 4.84456788 -1 2 C-0.67 1.34 -0.34 0.68 0 0 Z " fill="#035FB3" transform="translate(174,386)"/>
<path d="M0 0 C0.66 0 1.32 0 2 0 C2 4.95 2 9.9 2 15 C1.01 15 0.02 15 -1 15 C-0.67 10.05 -0.34 5.1 0 0 Z " fill="#027EED" transform="translate(359,333)"/>
<path d="M0 0 C0.33 0 0.66 0 1 0 C1.33 2.97 1.66 5.94 2 9 C0.39935157 9.53154742 -1.20568874 10.04988353 -2.8125 10.5625 C-3.70582031 10.85253906 -4.59914063 11.14257812 -5.51953125 11.44140625 C-8 12 -8 12 -11 11 C-11 10.34 -11 9.68 -11 9 C-5.555 8.01 -5.555 8.01 0 7 C0 4.69 0 2.38 0 0 Z " fill="#025CB1" transform="translate(398,454)"/>
<path d="M0 0 C4.8274799 1.41292095 8.7162359 3.42974154 13 6 C11.296875 7.1484375 11.296875 7.1484375 9 8 C6.640625 7.1015625 6.640625 7.1015625 4.25 5.625 C3.45078125 5.14289063 2.6515625 4.66078125 1.828125 4.1640625 C1.22484375 3.77992188 0.6215625 3.39578125 0 3 C0 2.01 0 1.02 0 0 Z " fill="#012146" transform="translate(200,423)"/>
<path d="M0 0 C0.33 0 0.66 0 1 0 C4.19008264 14.15599174 4.19008264 14.15599174 2 21 C1.01 20.67 0.02 20.34 -1 20 C-0.34 20 0.32 20 1 20 C0.83628906 19.33613281 0.67257812 18.67226562 0.50390625 17.98828125 C-0.10603857 14.37116663 -0.10795513 10.84139292 -0.0625 7.1875 C-0.05798828 6.49462891 -0.05347656 5.80175781 -0.04882812 5.08789062 C-0.03713156 3.39188932 -0.01919924 1.69593297 0 0 Z " fill="#002045" transform="translate(402,95)"/>
<path d="M0 0 C-2.0018713 2.87768999 -3.27874247 3.05483458 -6.8125 3.75 C-10.35807783 4.08424116 -13.51120306 3.78497931 -17 3 C-17 2.67 -17 2.34 -17 2 C-5.47835991 -0.29612756 -5.47835991 -0.29612756 0 0 Z " fill="#032145" transform="translate(52,262)"/>
<path d="M0 0 C0.33 0.66 0.66 1.32 1 2 C-0.74635165 2.53293835 -2.49727652 3.05090663 -4.25 3.5625 C-5.22453125 3.85253906 -6.1990625 4.14257812 -7.203125 4.44140625 C-9.96243932 4.99249836 -11.3912824 4.93789609 -14 4 C-13.67 3.34 -13.34 2.68 -13 2 C-8.55499776 0.66649933 -4.6681169 -0.29175731 0 0 Z " fill="#025EB6" transform="translate(297,488)"/>
<path d="M0 0 C-3.5458668 2.954889 -7.63781033 5.45934985 -12 7 C-12.99 6.67 -13.98 6.34 -15 6 C-9.77416798 1.64513998 -6.90987329 -0.31408515 0 0 Z " fill="#015DB5" transform="translate(282,399)"/>
<path d="M0 0 C-0.99 0.66 -1.98 1.32 -3 2 C-4.19232613 4.05003955 -4.19232613 4.05003955 -5 6 C-5 5.34 -5 4.68 -5 4 C-7.64 4 -10.28 4 -13 4 C-13 3.34 -13 2.68 -13 2 C-8.49646738 0.24252386 -4.82360189 -0.19294408 0 0 Z " fill="#042F5E" transform="translate(343,52)"/>
<path d="M0 0 C0 0.33 0 0.66 0 1 C-2.64 1 -5.28 1 -8 1 C-8.33 0.34 -8.66 -0.32 -9 -1 C-9 0.65 -9 2.3 -9 4 C-9.99 3.67 -10.98 3.34 -12 3 C-12 2.01 -12 1.02 -12 0 C-12.66 -0.33 -13.32 -0.66 -14 -1 C-8.84549584 -2.71816805 -4.88857725 -2.30050694 0 0 Z " fill="#014A8D" transform="translate(249,17)"/>
<path d="M0 0 C6.02900687 0.51241107 12.02004643 1.069785 18 2 C18 2.33 18 2.66 18 3 C5.33029613 4.70159453 5.33029613 4.70159453 0 1 C0 0.67 0 0.34 0 0 Z " fill="#034C90" transform="translate(426,262)"/>
<path d="M0 0 C12.66970387 0.96355353 12.66970387 0.96355353 18 2 C18 2.33 18 2.66 18 3 C16.2300132 3.19532961 14.45895721 3.38098882 12.6875 3.5625 C11.70136719 3.66691406 10.71523438 3.77132813 9.69921875 3.87890625 C7 4 7 4 4 3 C4 2.34 4 1.68 4 1 C2.68 0.67 1.36 0.34 0 0 Z " fill="#024D91" transform="translate(379,254)"/>
<path d="M0 0 C0.33 1.32 0.66 2.64 1 4 C1.99 4.33 2.98 4.66 4 5 C0.7 4.67 -2.6 4.34 -6 4 C-6 3.34 -6 2.68 -6 2 C-6.99 1.67 -7.98 1.34 -9 1 C-4.545 0.505 -4.545 0.505 0 0 Z " fill="#013367" transform="translate(237,500)"/>
<path d="M0 0 C0.99 0 1.98 0 3 0 C3.19294408 4.82360189 2.75747614 8.49646738 1 13 C0.67 13 0.34 13 0 13 C0 8.71 0 4.42 0 0 Z " fill="#076FCC" transform="translate(397,411)"/>
<path d="M0 0 C3.72433382 1.2125738 7.37802806 2.50859979 11 4 C11 4.99 11 5.98 11 7 C6.76570244 5.68938409 2.92592596 4.05643741 -1 2 C-0.67 1.34 -0.34 0.68 0 0 Z " fill="#0258A6" transform="translate(226,413)"/>
<path d="M0 0 C-3.99475219 2.66316813 -7.68565617 2.80670682 -12.3828125 3.4375 C-13.67832031 3.7159375 -13.67832031 3.7159375 -15 4 C-15.33 4.66 -15.66 5.32 -16 6 C-16 5.01 -16 4.02 -16 3 C-5.62642369 -1.77676538 -5.62642369 -1.77676538 0 0 Z " fill="#011D3E" transform="translate(333,56)"/>
<path d="M0 0 C1 3 1 3 0.00390625 5.26171875 C-0.47175781 6.06222656 -0.94742187 6.86273438 -1.4375 7.6875 C-1.91058594 8.49574219 -2.38367188 9.30398438 -2.87109375 10.13671875 C-3.24363281 10.75160156 -3.61617188 11.36648438 -4 12 C-4.33 12 -4.66 12 -5 12 C-5.39213671 7.55578397 -4.25321274 4.81312925 -2 1 C-1.34 0.67 -0.68 0.34 0 0 Z " fill="#045CAD" transform="translate(335,358)"/>
<path d="M0 0 C3.79366724 0.41012619 6.19316507 1.40107877 9 4 C9 4.66 9 5.32 9 6 C5.08788267 4.84414715 2.1254959 3.64465038 -1 1 C-0.67 0.67 -0.34 0.34 0 0 Z " fill="#0258A8" transform="translate(189,394)"/>
<path d="M0 0 C2.02408755 0.09002398 4.04544287 0.24641038 6.0625 0.4375 C7.71958984 0.59025391 7.71958984 0.59025391 9.41015625 0.74609375 C10.26480469 0.82988281 11.11945313 0.91367187 12 1 C12 1.33 12 1.66 12 2 C8.7 2.33 5.4 2.66 2 3 C1.34 4.98 0.68 6.96 0 9 C-0.33 9 -0.66 9 -1 9 C-1.09765625 2.84765625 -1.09765625 2.84765625 -1 1 C-0.67 0.67 -0.34 0.34 0 0 Z " fill="#025AA8" transform="translate(222,261)"/>
<path d="M0 0 C0.33 0.99 0.66 1.98 1 3 C-3.05606165 2.53199289 -6.46588679 2.12046792 -10 0 C-6.30581799 -1.231394 -3.7943739 -0.64432764 0 0 Z " fill="#035CB0" transform="translate(349,146)"/>
<path d="M0 0 C0 0.33 0 0.66 0 1 C-1.41377782 1.36552803 -2.83120576 1.71695495 -4.25 2.0625 C-5.03890625 2.25972656 -5.8278125 2.45695312 -6.640625 2.66015625 C-9.10394822 3.01497267 -10.65604132 2.76877544 -13 2 C-12.67 1.34 -12.34 0.68 -12 0 C-7.8265198 -1.35024359 -4.26066408 -0.7518819 0 0 Z " fill="#025AB0" transform="translate(435,455)"/>
<path d="M0 0 C3.3 0.99 6.6 1.98 10 3 C10 3.33 10 3.66 10 4 C8.741875 4.04125 7.48375 4.0825 6.1875 4.125 C5.47980469 4.14820312 4.77210938 4.17140625 4.04296875 4.1953125 C2 4 2 4 -1 2 C-0.67 1.34 -0.34 0.68 0 0 Z " fill="#02519B" transform="translate(451,94)"/>
<path d="M0 0 C1.32 0.33 2.64 0.66 4 1 C3.01 1 2.02 1 1 1 C1.33 2.98 1.66 4.96 2 7 C1.01 6.67 0.02 6.34 -1 6 C-1 5.34 -1 4.68 -1 4 C-2.32 3.67 -3.64 3.34 -5 3 C-3.35 2.67 -1.7 2.34 0 2 C0 1.34 0 0.68 0 0 Z " fill="#02356A" transform="translate(52,83)"/>
<path d="M0 0 C-3.82517513 2.39073445 -7.59665524 2.55966552 -12 3 C-11.67 2.01 -11.34 1.02 -11 0 C-7.38357376 -1.6691198 -3.79425988 -0.65669883 0 0 Z " fill="#0259AC" transform="translate(356,474)"/>
<path d="M0 0 C-3.82517513 2.39073445 -7.59665524 2.55966552 -12 3 C-11.67 2.01 -11.34 1.02 -11 0 C-7.01803543 -1.05404945 -4.01804691 -0.84098656 0 0 Z " fill="#0259AC" transform="translate(383,467)"/>
<path d="M0 0 C0.33 0 0.66 0 1 0 C1.36552803 1.41377782 1.71695495 2.83120576 2.0625 4.25 C2.25972656 5.03890625 2.45695312 5.8278125 2.66015625 6.640625 C3.01497267 9.10394822 2.76877544 10.65604132 2 13 C2 12.01 2 11.02 2 10 C1.34 10 0.68 10 0 10 C-0.74926071 6.33694766 -1.2380014 3.57644848 0 0 Z " fill="#002148" transform="translate(120,352)"/>
<path d="M0 0 C0.33 0 0.66 0 1 0 C1.10251672 5.12583611 1.03590199 9.94997778 0 15 C-0.66 15 -1.32 15 -2 15 C-2.22577402 9.5814234 -1.46670113 5.22512279 0 0 Z " fill="#033C6F" transform="translate(272,273)"/>
<path d="M0 0 C3.63 0.33 7.26 0.66 11 1 C11 1.33 11 1.66 11 2 C7.37 2.33 3.74 2.66 0 3 C0 2.01 0 1.02 0 0 Z " fill="#02529B" transform="translate(368,252)"/>
<path d="M0 0 C2 2 2 2 2.125 5.625 C2.08375 6.73875 2.0425 7.8525 2 9 C1.01 8.67 0.02 8.34 -1 8 C-1.04241723 5.66705225 -1.04092937 3.33297433 -1 1 C-0.67 0.67 -0.34 0.34 0 0 Z " fill="#025FB4" transform="translate(320,165)"/>
<path d="M0 0 C8.57142857 0.85714286 8.57142857 0.85714286 12 3 C4.25 4.125 4.25 4.125 2 3 C2 2.34 2 1.68 2 1 C1.34 0.67 0.68 0.34 0 0 Z " fill="#044C8F" transform="translate(347,168)"/>
<path d="M0 0 C-3.90028225 2.60018816 -7.47434569 2.15085514 -12 2 C-11.67 1.34 -11.34 0.68 -11 0 C-7.0832314 -1.23098442 -3.97610732 -0.83220851 0 0 Z " fill="#0162BE" transform="translate(260,499)"/>
<path d="M0 0 C1.98 0 3.96 0 6 0 C6.33 0.99 6.66 1.98 7 3 C6.01 4.485 6.01 4.485 5 6 C5 5.01 5 4.02 5 3 C3.35 2.67 1.7 2.34 0 2 C0 1.34 0 0.68 0 0 Z " fill="#001E43" transform="translate(150,417)"/>
<path d="M0 0 C4.29 0.33 8.58 0.66 13 1 C13 1.33 13 1.66 13 2 C11.39679026 2.19551338 9.79237014 2.38111983 8.1875 2.5625 C7.29417969 2.66691406 6.40085937 2.77132813 5.48046875 2.87890625 C3 3 3 3 0 2 C0 1.34 0 0.68 0 0 Z " fill="#05447B" transform="translate(413,260)"/>
<path d="M0 0 C0.33 1.32 0.66 2.64 1 4 C-2.29696105 5.09898702 -3.40494903 4.87124444 -6.6875 4.0625 C-7.89986328 3.77052734 -7.89986328 3.77052734 -9.13671875 3.47265625 C-10.05904297 3.23869141 -10.05904297 3.23869141 -11 3 C-8.63662921 2.35133014 -6.85095812 2.00354862 -4.375 2.0625 C-1.80875196 2.26759225 -1.80875196 2.26759225 0 0 Z " fill="#05508D" transform="translate(362,227)"/>
<path d="M0 0 C4.05606165 0.46800711 7.46588679 0.87953208 11 3 C4.25 4.125 4.25 4.125 2 3 C2 2.34 2 1.68 2 1 C1.34 0.67 0.68 0.34 0 0 Z " fill="#024D94" transform="translate(402,182)"/>
<path d="M0 0 C1.65 0.33 3.3 0.66 5 1 C5.33 1.99 5.66 2.98 6 4 C4.741875 3.87625 3.48375 3.7525 2.1875 3.625 C1.12595703 3.52058594 1.12595703 3.52058594 0.04296875 3.4140625 C-2 3 -2 3 -5 1 C-3.35 1 -1.7 1 0 1 C0 0.67 0 0.34 0 0 Z " fill="#0358A6" transform="translate(395,159)"/>
<path d="M0 0 C-3.53411321 2.12046792 -6.94393835 2.53199289 -11 3 C-10.67 2.01 -10.34 1.02 -10 0 C-6.58729758 -1.51675663 -3.55830874 -0.72783588 0 0 Z " fill="#0258AB" transform="translate(283,493)"/>
<path d="M0 0 C3.25696479 0.41755959 4.63443291 0.63443291 7 3 C7 3.66 7 4.32 7 5 C1.25 3.25 1.25 3.25 -1 1 C-0.67 0.67 -0.34 0.34 0 0 Z " fill="#0358A6" transform="translate(210,405)"/>
<path d="M0 0 C0.66 0 1.32 0 2 0 C1.67 3.63 1.34 7.26 1 11 C0.67 11 0.34 11 0 11 C-0.19406478 9.35492782 -0.38007935 7.70890406 -0.5625 6.0625 C-0.66691406 5.14597656 -0.77132812 4.22945313 -0.87890625 3.28515625 C-0.91886719 2.53105469 -0.95882812 1.77695312 -1 1 C-0.67 0.67 -0.34 0.34 0 0 Z " fill="#025FB4" transform="translate(249,307)"/>
<path d="M0 0 C1.6396875 0.0928125 1.6396875 0.0928125 3.3125 0.1875 C3.3125 0.8475 3.3125 1.5075 3.3125 2.1875 C0.0125 2.5175 -3.2875 2.8475 -6.6875 3.1875 C-3.6875 0.1875 -3.6875 0.1875 0 0 Z " fill="#012C60" transform="translate(55.6875,261.8125)"/>
<path d="M0 0 C-0.969375 0.28875 -1.93875 0.5775 -2.9375 0.875 C-6.10664203 1.64214682 -6.10664203 1.64214682 -7 4 C-8.32 3.67 -9.64 3.34 -11 3 C-11 2.34 -11 1.68 -11 1 C-3.57142857 -1.42857143 -3.57142857 -1.42857143 0 0 Z " fill="#011B3B" transform="translate(72,184)"/>
<path d="M0 0 C3.68754757 0.49831724 5.60490662 1.10067643 8 4 C7.01 4.495 7.01 4.495 6 5 C3.64018187 4.06421005 1.30368736 3.06652192 -1 2 C-0.67 1.34 -0.34 0.68 0 0 Z " fill="#0358A7" transform="translate(251,140)"/>
<path d="M0 0 C5.625 -0.25 5.625 -0.25 9 2 C9 2.66 9 3.32 9 4 C6.03 3.01 3.06 2.02 0 1 C0 0.67 0 0.34 0 0 Z " fill="#023B7B" transform="translate(325,87)"/>
<path d="M0 0 C4.455 0.99 4.455 0.99 9 2 C9 2.33 9 2.66 9 3 C3.58461538 4.23076923 3.58461538 4.23076923 0.625 3.0625 C0.08875 2.711875 -0.4475 2.36125 -1 2 C-0.67 1.34 -0.34 0.68 0 0 Z " fill="#02529C" transform="translate(307,82)"/>
<path d="M0 0 C3.3 0.99 6.6 1.98 10 3 C10 3.33 10 3.66 10 4 C8.02 4.33 6.04 4.66 4 5 C3.67 4.01 3.34 3.02 3 2 C2.01 2.33 1.02 2.66 0 3 C0 2.01 0 1.02 0 0 Z " fill="#014A90" transform="translate(351,56)"/>
<path d="M0 0 C-0.99 0.495 -0.99 0.495 -2 1 C-2 2.98 -2 4.96 -2 7 C-2.66 7 -3.32 7 -4 7 C-4.12375 6.360625 -4.2475 5.72125 -4.375 5.0625 C-4.684375 4.0415625 -4.684375 4.0415625 -5 3 C-5.66 2.67 -6.32 2.34 -7 2 C-7 1.34 -7 0.68 -7 0 C-3.98968256 -0.93423645 -3.13349732 -1.04449911 0 0 Z " fill="#043461" transform="translate(140,53)"/>
<path d="M0 0 C-0.33 0.66 -0.66 1.32 -1 2 C-2.33076989 2.34342449 -3.66431979 2.67619874 -5 3 C-5.66 3.66 -6.32 4.32 -7 5 C-6.625 2.5625 -6.625 2.5625 -6 0 C-3.50907189 -1.24546405 -2.58919267 -0.7767578 0 0 Z " fill="#022147" transform="translate(410,90)"/>
<path d="M0 0 C2.875 -0.125 2.875 -0.125 6 0 C6.66 0.66 7.32 1.32 8 2 C6.02 2 4.04 2 2 2 C2 3.65 2 5.3 2 7 C1.67 7 1.34 7 1 7 C0.67 4.69 0.34 2.38 0 0 Z " fill="#045BAE" transform="translate(53,84)"/>
<path d="M0 0 C0 0.66 0 1.32 0 2 C-2.64 2.33 -5.28 2.66 -8 3 C-7.67 2.01 -7.34 1.02 -7 0 C-4.05610218 -1.17755913 -3.10046087 -1.03348696 0 0 Z " fill="#035FB6" transform="translate(443,452)"/>
<path d="M0 0 C0.86625 0.556875 0.86625 0.556875 1.75 1.125 C-0.21466413 2.19275224 -2.21855359 3.19053465 -4.25 4.125 C-4.91 3.795 -5.57 3.465 -6.25 3.125 C-6.25 2.465 -6.25 1.805 -6.25 1.125 C-2.80384615 -1.09038462 -2.80384615 -1.09038462 0 0 Z " fill="#025AAE" transform="translate(288.25,394.875)"/>
<path d="M0 0 C1.32 0.33 2.64 0.66 4 1 C4 1.66 4 2.32 4 3 C5.65 3 7.3 3 9 3 C9 3.33 9 3.66 9 4 C5.37 3.67 1.74 3.34 -2 3 C-1.34 2.01 -0.68 1.02 0 0 Z " fill="#0355A3" transform="translate(417,240)"/>
<path d="M0 0 C3.37462715 0.54723683 5.08235 1.0549 8 3 C2.25 4.125 2.25 4.125 0 3 C0 2.01 0 1.02 0 0 Z " fill="#02519C" transform="translate(361,60)"/>
<path d="M0 0 C2.9375 0.8125 2.9375 0.8125 6 2 C6.33 2.99 6.66 3.98 7 5 C1.25 3.25 1.25 3.25 -1 1 C-0.67 0.67 -0.34 0.34 0 0 Z " fill="#0154A1" transform="translate(174,386)"/>
<path d="M0 0 C0.66 0 1.32 0 2 0 C1.34 3.63 0.68 7.26 0 11 C-0.33 11 -0.66 11 -1 11 C-1.02688151 9.35425434 -1.04634123 7.70838587 -1.0625 6.0625 C-1.07410156 5.14597656 -1.08570313 4.22945313 -1.09765625 3.28515625 C-1 1 -1 1 0 0 Z " fill="#035AAB" transform="translate(192,327)"/>
<path d="M0 0 C2.16695725 2.16695725 2.73495121 2.99611368 3 6 C2.01 7.32 1.02 8.64 0 10 C0 6.7 0 3.4 0 0 Z " fill="#032E60" transform="translate(92,74)"/>
</svg>
