<?xml version="1.0" standalone="no"?>
<!DOCTYPE svg PUBLIC "-//W3C//DTD SVG 20010904//EN"
 "http://www.w3.org/TR/2001/REC-SVG-20010904/DTD/svg10.dtd">
<svg version="1.0" xmlns="http://www.w3.org/2000/svg"
 width="1024.000000pt" height="1024.000000pt" viewBox="0 0 1024.000000 1024.000000"
 preserveAspectRatio="xMidYMid meet">

<g transform="translate(0.000000,1024.000000) scale(0.100000,-0.100000)"
fill="#000000" stroke="none">
<path d="M2687 8629 c-111 -26 -219 -117 -259 -217 -20 -51 -22 -78 -26 -262
l-4 -205 -331 3 c-420 4 -478 -5 -584 -85 -43 -33 -99 -118 -113 -172 -14 -52
-21 -5326 -8 -5431 16 -124 97 -232 216 -288 l57 -27 1203 -3 c1136 -2 1203
-3 1198 -20 -3 -9 -35 -195 -72 -412 -36 -217 -71 -411 -78 -430 -16 -51 -43
-60 -179 -60 -153 0 -187 -16 -187 -86 0 -14 11 -36 25 -49 l24 -25 1501 0
1501 0 24 25 c31 31 32 66 1 102 -23 27 -26 28 -160 33 -121 4 -138 7 -157 26
-18 18 -28 65 -64 280 -76 453 -95 574 -95 594 0 20 12 20 1178 20 1296 0
1222 -3 1332 62 69 42 125 115 150 198 20 64 20 93 18 2770 l-3 2705 -28 60
c-44 95 -111 154 -213 191 -43 15 -96 17 -429 20 -209 1 -392 2 -407 3 l-26 1
-4 203 -3 202 -31 66 c-35 74 -79 123 -147 162 -103 61 55 57 -2472 56 -1300
-1 -2326 -5 -2348 -10z m3486 -16 c-617 -2 -1629 -2 -2250 0 -620 1 -115 2
1122 2 1238 0 1745 -1 1128 -2z m-2746 -19 c-3 -3 -12 -4 -19 -1 -8 3 -5 6 6
6 11 1 17 -2 13 -5z m806 -1 c-13 -2 -35 -2 -50 0 -16 2 -5 4 22 4 28 0 40 -2
28 -4z m54 1 c-3 -3 -12 -4 -19 -1 -8 3 -5 6 6 6 11 1 17 -2 13 -5z m101 -1
c-15 -2 -42 -2 -60 0 -18 2 -6 4 27 4 33 0 48 -2 33 -4z m80 0 c-10 -2 -26 -2
-35 0 -10 3 -2 5 17 5 19 0 27 -2 18 -5z m505 0 c-90 -2 -236 -2 -325 0 -90 1
-17 3 162 3 179 0 252 -2 163 -3z m815 0 c-120 -2 -316 -2 -435 0 -120 1 -22
2 217 2 239 0 337 -1 218 -2z m495 0 c-51 -2 -135 -2 -185 0 -51 1 -10 3 92 3
102 0 143 -2 93 -3z m175 0 c-16 -2 -40 -2 -55 0 -16 2 -3 4 27 4 30 0 43 -2
28 -4z m59 1 c-3 -3 -12 -4 -19 -1 -8 3 -5 6 6 6 11 1 17 -2 13 -5z m191 -1
c-27 -2 -69 -2 -95 0 -27 2 -5 3 47 3 52 0 74 -1 48 -3z m99 1 c-3 -3 -12 -4
-19 -1 -8 3 -5 6 6 6 11 1 17 -2 13 -5z m121 -1 c-21 -2 -55 -2 -75 0 -21 2
-4 4 37 4 41 0 58 -2 38 -4z m110 0 c-10 -2 -28 -2 -40 0 -13 2 -5 4 17 4 22
1 32 -1 23 -4z m85 0 c-7 -2 -21 -2 -30 0 -10 3 -4 5 12 5 17 0 24 -2 18 -5z
m60 0 c-7 -2 -21 -2 -30 0 -10 3 -4 5 12 5 17 0 24 -2 18 -5z m95 0 c-10 -2
-28 -2 -40 0 -13 2 -5 4 17 4 22 1 32 -1 23 -4z m55 0 c-7 -2 -19 -2 -25 0 -7
3 -2 5 12 5 14 0 19 -2 13 -5z m-497 -560 c32 -11 66 -34 101 -68 87 -88 83
-38 83 -975 l0 -817 -62 14 c-35 8 -142 17 -238 20 -148 4 -193 2 -295 -15
-323 -55 -569 -184 -805 -421 -211 -212 -331 -417 -401 -686 -15 -60 -28 -102
-29 -91 -1 56 70 275 127 389 24 48 41 87 38 87 -2 0 -13 -17 -24 -37 -22 -43
-65 -84 -84 -80 -6 1 -11 -5 -9 -14 1 -10 -6 -19 -19 -22 -11 -3 -18 -10 -15
-15 3 -5 -5 -18 -17 -30 -31 -30 -49 -52 -40 -52 4 0 -1 -6 -12 -13 -10 -8
-15 -19 -11 -25 4 -7 3 -12 -3 -12 -5 0 -12 -9 -16 -19 -3 -12 -12 -18 -20
-15 -10 4 -13 0 -10 -15 2 -14 -1 -21 -11 -21 -8 0 -14 -10 -14 -24 0 -13 -7
-29 -15 -36 -8 -7 -12 -16 -9 -21 3 -5 1 -9 -3 -9 -5 0 -18 -7 -29 -16 -19
-15 -19 -16 1 -10 17 5 16 3 -5 -16 -14 -13 -24 -32 -23 -43 2 -11 -6 -31 -17
-45 -17 -21 -19 -22 -14 -5 5 16 4 17 -5 5 -15 -21 -14 -43 2 -34 8 5 8 3 -2
-9 -7 -9 -17 -15 -21 -12 -5 3 -7 -6 -5 -20 1 -15 -3 -25 -10 -25 -7 0 -10 -9
-8 -24 3 -13 -1 -27 -8 -31 -8 -6 -10 -4 -4 5 5 8 4 11 -3 7 -5 -4 -8 -17 -4
-29 3 -14 1 -19 -6 -14 -8 5 -10 1 -5 -10 4 -11 -2 -23 -18 -36 -13 -11 -18
-17 -11 -13 14 7 17 -21 2 -30 -9 -6 -53 -82 -55 -95 0 -3 -4 -10 -8 -17 -4
-6 -3 -15 3 -18 6 -4 1 -14 -14 -26 -20 -16 -36 -58 -40 -111 -1 -3 -4 -9 -8
-13 -4 -4 -3 -18 2 -31 7 -18 5 -27 -13 -41 -27 -23 -32 -43 -10 -43 13 0 11
-4 -7 -20 -13 -11 -27 -20 -32 -20 -5 0 -6 -4 -3 -10 3 -5 1 -10 -5 -10 -6 0
-8 -5 -5 -11 4 -6 13 -8 21 -5 8 3 14 1 14 -3 0 -5 -8 -12 -17 -15 -15 -6 -15
-8 -3 -16 13 -8 12 -10 -2 -11 -10 -1 -22 -3 -28 -4 -5 -1 -13 -3 -16 -4 -3 0
-2 -6 1 -11 5 -8 11 -7 21 1 8 6 17 9 21 5 3 -3 0 -6 -7 -6 -7 0 -10 -3 -7 -7
4 -3 -1 -12 -10 -19 -15 -10 -14 -12 12 -8 28 4 28 4 7 -6 -32 -14 -49 -33
-44 -49 4 -11 6 -11 13 0 7 11 9 10 9 -3 0 -10 -8 -19 -17 -19 -16 -1 -16 -2
-1 -6 21 -5 32 -33 18 -47 -8 -8 -9 -6 -4 8 5 14 4 17 -5 12 -8 -5 -11 -21 -8
-42 4 -25 1 -34 -9 -34 -24 0 -15 -19 12 -26 22 -6 24 -8 10 -16 -9 -5 -21 -6
-28 -2 -7 4 -8 3 -4 -5 4 -6 16 -9 26 -6 14 5 18 1 17 -14 -1 -15 -4 -17 -15
-9 -9 8 -16 8 -24 0 -13 -13 -1 -35 14 -26 6 4 8 3 5 -3 -3 -5 -30 -11 -59
-12 -88 -3 -67 -11 33 -12 52 -1 112 -2 134 -4 22 -1 56 -4 75 -5 19 -1 27 -4
18 -7 -10 -2 -15 -10 -11 -19 4 -11 41 -14 202 -15 167 -1 185 -3 121 -10 -41
-5 -471 -8 -955 -6 -733 2 -886 5 -919 17 -53 20 -129 91 -157 147 l-24 48 0
1995 c0 1905 1 1996 18 2028 40 73 108 132 177 153 14 4 813 8 1776 8 1613 1
1754 0 1800 -16z m851 -770 c-1 -120 -2 -24 -2 212 0 237 1 335 2 218 2 -116
2 -310 0 -430z m-5280 525 c-2 -18 -4 -6 -4 27 0 33 2 48 4 33 2 -15 2 -42 0
-60z m6234 35 c13 -16 12 -17 -3 -4 -10 7 -18 15 -18 17 0 8 8 3 21 -13z m40
-40 c13 -16 12 -17 -3 -4 -10 7 -18 15 -18 17 0 8 8 3 21 -13z m-6274 -230
c-3 -10 -5 -2 -5 17 0 19 2 27 5 18 2 -10 2 -26 0 -35z m5280 -625 c-2 -24 -4
-7 -4 37 0 44 2 63 4 43 2 -21 2 -57 0 -80z m0 -180 c-2 -13 -4 -5 -4 17 -1
22 1 32 4 23 2 -10 2 -28 0 -40z m-344 -1522 c44 -18 95 -78 103 -121 10 -56
-2 -114 -33 -155 -33 -45 -477 -541 -648 -724 -67 -72 -134 -135 -152 -143
-44 -18 -111 -16 -149 5 -44 23 -542 498 -560 533 -27 53 -28 109 -2 158 13
25 35 54 50 65 39 28 125 33 169 11 19 -10 120 -98 225 -196 l191 -178 64 77
c135 161 474 550 532 609 33 34 70 64 81 66 45 9 98 6 129 -7z m-2156 -293
c-3 -10 -5 -4 -5 12 0 17 2 24 5 18 2 -7 2 -21 0 -30z m-10 -70 c-3 -10 -5 -4
-5 12 0 17 2 24 5 18 2 -7 2 -21 0 -30z m-425 -445 c-7 -7 -12 -8 -12 -2 0 6
3 14 7 17 3 4 9 5 12 2 2 -3 -1 -11 -7 -17z m-105 -414 c-3 -3 -12 -4 -19 -1
-8 3 -5 6 6 6 11 1 17 -2 13 -5z m3 -44 c0 -5 -2 -10 -4 -10 -3 0 -8 5 -11 10
-3 6 -1 10 4 10 6 0 11 -4 11 -10z"/>
<path d="M3770 7372 c-19 -9 -45 -33 -58 -52 -33 -49 -28 -146 8 -186 60 -63
-13 -59 1085 -62 709 -3 1015 0 1051 8 79 17 124 74 124 157 0 57 -26 105 -72
133 -32 20 -53 20 -1068 20 -965 0 -1037 -1 -1070 -18z"/>
<path d="M3803 6679 c-123 -25 -156 -178 -58 -269 l27 -25 772 -3 773 -2 34
23 c91 61 91 191 -1 258 -24 18 -67 19 -772 21 -411 2 -760 0 -775 -3z"/>
<path d="M3779 6047 c-58 -39 -81 -84 -77 -145 5 -61 28 -96 78 -123 33 -18
68 -19 577 -19 l543 0 40 36 c67 60 76 152 22 216 -50 59 -43 58 -620 58
l-529 0 -34 -23z"/>
<path d="M4443 3723 c9 -2 23 -2 30 0 6 3 -1 5 -18 5 -16 0 -22 -2 -12 -5z"/>
<path d="M4738 3693 c7 -3 16 -2 19 1 4 3 -2 6 -13 5 -11 0 -14 -3 -6 -6z"/>
</g>
</svg>
